<svg width="276" height="277" viewBox="0 0 276 277" fill="none" xmlns="http://www.w3.org/2000/svg">
<path d="M49.9247 193.497C-18.3563 137.784 7.44648 83.895 1.46821 9.71574C1.19094 6.27534 4.13132 3.41107 7.51922 4.0715C48.2322 12.008 116.974 43.8599 131.724 121.892C138.384 157.131 135.002 205.435 134.939 265.305C134.937 267.034 132.72 267.755 131.684 266.37C119.268 249.774 114.932 246.539 49.9247 193.497Z" fill="url(#paint0_linear_2029_9)"/>
<path d="M45.768 187.627C-12.7661 139.617 6.76843 72.321 4.41271 12.2543C4.28064 8.8867 7.1883 6.16733 10.4905 6.8419C48.6555 14.6382 115.807 47.5637 129.454 119.766C135.599 152.274 135.158 208.411 135.249 264.33C135.252 266.098 132.925 266.823 131.881 265.395C118.558 247.189 101.629 233.444 45.768 187.627Z" fill="url(#paint1_linear_2029_9)"/>
<g opacity="0.6">
<path d="M135.275 265.472L135.112 201.542C135.09 192.984 133.245 184.426 129.06 176.958C80.2298 89.8145 4.4339 108.618 4.4339 108.618C4.4339 108.618 5.529 156.536 44.905 187.439C67.4195 205.109 74.1013 212.603 96.611 230.279C114.55 244.366 126.204 258.957 131.668 266.585C132.727 268.064 135.28 267.29 135.275 265.472Z" fill="url(#paint2_linear_2029_9)"/>
<path d="M135.275 265.472L135.112 201.542C135.09 192.984 133.245 184.426 129.06 176.958C80.2298 89.8145 4.4339 108.618 4.4339 108.618C4.4339 108.618 5.529 156.536 44.905 187.439C67.4195 205.109 74.1013 212.603 96.611 230.279C114.55 244.366 126.204 258.957 131.668 266.585C132.727 268.064 135.28 267.29 135.275 265.472Z" fill="url(#paint3_radial_2029_9)"/>
</g>
<path d="M132.913 185.996C111.658 140.134 65.3197 100.374 12.4742 107.732C11.59 107.843 10.6573 107.605 9.79153 107.74C10.6576 107.607 11.5918 107.848 12.4762 107.738C64.3675 101.787 110.973 141.382 129.995 187.37C131.139 189.894 134.134 196.231 134.134 196.231L133.306 190.897C133.306 190.897 134.176 188.508 132.913 185.996Z" fill="url(#paint4_linear_2029_9)"/>
<path d="M133.791 185.387C112.536 139.525 66.2095 100.369 13.364 107.727C12.4798 107.838 11.5472 107.6 10.6814 107.735C11.5474 107.602 12.4816 107.843 13.3661 107.733C66.3811 100.497 111.852 140.773 130.874 186.761C132.018 189.285 135.013 195.622 135.013 195.622L134.185 190.288C134.185 190.288 135.055 187.899 133.791 185.387Z" fill="#3F3F3F"/>
<path d="M1.81445 9.7182C1.53909 6.27765 4.47928 3.41324 7.86719 4.07367C48.5802 12.0102 117.322 43.8627 132.071 121.895C138.719 157.066 136.339 207.264 136.323 267.102C136.323 268.863 134.04 269.558 133.041 268.107C132.401 267.177 131.781 266.285 131.174 265.421C128.445 261.693 124.465 256.628 119.22 250.909C109.211 240.75 92.1416 226.91 50.6162 193.831C-18.6864 138.623 7.75513 83.9451 1.81445 9.7182Z" fill="url(#paint5_radial_2029_9)"/>
<path d="M224.617 192.37C291.341 140.976 271.095 87.2574 273.678 8.10922C273.764 5.46575 271.938 3.11526 269.293 3.14882C239.602 3.5256 154.437 43.5557 144.985 122.476C140.516 159.788 138.94 205.998 140.383 265.939C140.422 267.567 142.433 268.29 143.482 267.045C158.428 249.305 160.618 241.665 224.617 192.37Z" fill="url(#paint6_radial_2029_9)"/>
<path d="M224.617 192.37C291.341 140.976 271.095 87.2574 273.678 8.10922C273.764 5.46575 271.938 3.11526 269.293 3.14882C239.602 3.5256 154.437 43.5557 144.985 122.476C140.516 159.788 138.94 205.998 140.383 265.939C140.422 267.567 142.433 268.29 143.482 267.045C158.428 249.305 160.618 241.665 224.617 192.37Z" fill="url(#paint7_radial_2029_9)"/>
<path d="M230.404 185.617C288.938 137.607 269.403 70.3111 271.759 10.2444C271.891 6.87679 268.984 4.15741 265.681 4.83198C227.516 12.6283 160.365 45.5538 146.718 117.756C140.573 150.264 141.014 206.401 140.923 262.32C140.92 264.089 143.247 264.813 144.291 263.385C157.614 245.179 174.543 231.434 230.404 185.617Z" fill="url(#paint8_linear_2029_9)"/>
<path d="M140.905 264.072L141.07 199.533C141.092 190.975 142.937 182.417 147.121 174.949C195.952 87.8052 271.748 106.609 271.748 106.609C271.748 106.609 270.255 155.623 230.879 186.526C208.364 204.196 203.435 207.998 180.764 227.014C162.721 242.148 150.077 257.625 144.348 265.198C143.281 266.609 140.9 265.841 140.905 264.072Z" fill="url(#paint9_linear_2029_9)"/>
<path d="M140.905 264.072L141.07 199.533C141.092 190.975 142.937 182.417 147.121 174.949C195.952 87.8052 271.748 106.609 271.748 106.609C271.748 106.609 270.255 155.623 230.879 186.526C208.364 204.196 203.435 207.998 180.764 227.014C162.721 242.148 150.077 257.625 144.348 265.198C143.281 266.609 140.9 265.841 140.905 264.072Z" fill="url(#paint10_radial_2029_9)"/>
<path d="M143.271 183.986C164.526 138.124 210.864 98.3644 263.709 105.722C264.594 105.833 265.526 105.596 266.392 105.73C265.526 105.597 264.592 105.838 263.707 105.729C211.816 99.7776 165.211 139.372 146.188 185.36C145.045 187.884 142.049 194.221 142.049 194.221L142.877 188.887C142.877 188.887 142.007 186.498 143.271 183.986Z" fill="url(#paint11_linear_2029_9)"/>
<path d="M143.189 182.842C164.444 136.98 209.964 98.3566 262.81 105.714C263.694 105.825 264.627 105.588 265.493 105.722C264.627 105.589 263.692 105.831 262.808 105.721C209.793 98.4848 164.322 138.761 145.3 184.748C144.156 187.272 141.161 193.609 141.161 193.609L141.16 188.827C141.16 188.827 141.925 185.353 143.189 182.842Z" fill="url(#paint12_linear_2029_9)"/>
<g style="mix-blend-mode:multiply">
<mask id="mask0_2029_9" style="mask-type:alpha" maskUnits="userSpaceOnUse" x="1" y="3" width="274" height="266">
<path d="M49.9247 193.496C-18.3563 137.784 7.44648 83.8944 1.46821 9.71513C1.19094 6.27473 4.13132 3.41046 7.51922 4.07089C48.2322 12.0074 116.974 43.8593 131.724 121.892C138.384 157.13 135.002 205.434 134.939 265.305C134.937 267.033 132.72 267.754 131.684 266.37C119.268 249.773 114.932 246.538 49.9247 193.496Z" fill="url(#paint13_linear_2029_9)"/>
<path d="M45.768 187.626C-12.7661 139.616 6.76843 72.3204 4.41271 12.2537C4.28064 8.88609 7.1883 6.16672 10.4905 6.84129C48.6555 14.6376 115.807 47.5631 129.454 119.766C135.599 152.273 135.158 208.41 135.249 264.329C135.252 266.098 132.925 266.822 131.881 265.395C118.558 247.189 101.629 233.444 45.768 187.626Z" fill="url(#paint14_linear_2029_9)"/>
<g opacity="0.6">
<path d="M135.275 265.472L135.112 201.542C135.09 192.984 133.245 184.426 129.06 176.959C80.2298 89.8145 4.4339 108.618 4.4339 108.618C4.4339 108.618 5.529 156.536 44.905 187.439C67.4195 205.109 74.1013 212.603 96.611 230.279C114.55 244.366 126.204 258.957 131.668 266.585C132.727 268.064 135.28 267.29 135.275 265.472Z" fill="url(#paint15_linear_2029_9)"/>
<path d="M135.275 265.472L135.112 201.542C135.09 192.984 133.245 184.426 129.06 176.959C80.2298 89.8145 4.4339 108.618 4.4339 108.618C4.4339 108.618 5.529 156.536 44.905 187.439C67.4195 205.109 74.1013 212.603 96.611 230.279C114.55 244.366 126.204 258.957 131.668 266.585C132.727 268.064 135.28 267.29 135.275 265.472Z" fill="url(#paint16_radial_2029_9)"/>
</g>
<path d="M132.913 185.996C111.658 140.134 65.3197 100.374 12.4742 107.731C11.59 107.842 10.6573 107.605 9.79153 107.739C10.6576 107.606 11.5918 107.848 12.4762 107.738C64.3675 101.787 110.973 141.382 129.995 187.369C131.139 189.893 134.134 196.23 134.134 196.23L133.306 190.896C133.306 190.896 134.176 188.507 132.913 185.996Z" fill="url(#paint17_linear_2029_9)"/>
<path d="M133.791 185.387C112.536 139.525 66.2095 100.369 13.364 107.727C12.4798 107.838 11.5472 107.601 10.6814 107.735C11.5474 107.602 12.4816 107.843 13.3661 107.734C66.3811 100.497 111.852 140.773 130.874 186.761C132.018 189.285 135.013 195.622 135.013 195.622L134.185 190.288C134.185 190.288 135.055 187.899 133.791 185.387Z" fill="#3F3F3F"/>
<path d="M1.81445 9.71823C1.53909 6.27768 4.47928 3.41327 7.86719 4.0737C48.5802 12.0102 117.322 43.8627 132.071 121.895C138.719 157.066 136.339 207.264 136.323 267.102C136.323 268.863 134.04 269.558 133.041 268.107C132.401 267.177 131.781 266.285 131.174 265.421C128.445 261.693 124.465 256.628 119.22 250.909C109.211 240.75 92.1416 226.91 50.6162 193.831C-18.6864 138.623 7.75514 83.9451 1.81445 9.71823Z" fill="url(#paint18_radial_2029_9)"/>
<path d="M224.617 192.369C291.341 140.975 271.095 87.2568 273.678 8.10861C273.764 5.46514 271.938 3.11465 269.293 3.14821C239.602 3.52499 154.437 43.555 144.985 122.475C140.516 159.788 138.94 205.997 140.383 265.939C140.422 267.567 142.433 268.29 143.482 267.044C158.428 249.305 160.618 241.664 224.617 192.369Z" fill="url(#paint19_radial_2029_9)"/>
<path d="M224.617 192.369C291.341 140.975 271.095 87.2568 273.678 8.10861C273.764 5.46514 271.938 3.11465 269.293 3.14821C239.602 3.52499 154.437 43.555 144.985 122.475C140.516 159.788 138.94 205.997 140.383 265.939C140.422 267.567 142.433 268.29 143.482 267.044C158.428 249.305 160.618 241.664 224.617 192.369Z" fill="url(#paint20_radial_2029_9)"/>
<path d="M230.404 185.616C288.938 137.606 269.403 70.3105 271.759 10.2439C271.891 6.87624 268.984 4.15687 265.681 4.83143C227.516 12.6278 160.365 45.5533 146.718 117.756C140.573 150.263 141.014 206.4 140.923 262.319C140.92 264.088 143.247 264.812 144.291 263.385C157.614 245.179 174.543 231.434 230.404 185.616Z" fill="url(#paint21_linear_2029_9)"/>
<path d="M140.905 264.071L141.07 199.532C141.092 190.975 142.937 182.416 147.121 174.949C195.952 87.8046 271.748 106.608 271.748 106.608C271.748 106.608 270.255 155.622 230.879 186.526C208.364 204.196 203.435 207.997 180.764 227.013C162.721 242.148 150.077 257.624 144.348 265.197C143.281 266.609 140.9 265.841 140.905 264.071Z" fill="url(#paint22_linear_2029_9)"/>
<path d="M140.905 264.071L141.07 199.532C141.092 190.975 142.937 182.416 147.121 174.949C195.952 87.8046 271.748 106.608 271.748 106.608C271.748 106.608 270.255 155.622 230.879 186.526C208.364 204.196 203.435 207.997 180.764 227.013C162.721 242.148 150.077 257.624 144.348 265.197C143.281 266.609 140.9 265.841 140.905 264.071Z" fill="url(#paint23_radial_2029_9)"/>
<path d="M143.271 183.986C164.526 138.125 210.864 98.3644 263.709 105.722C264.594 105.833 265.526 105.596 266.392 105.73C265.526 105.597 264.592 105.838 263.707 105.729C211.816 99.7776 165.211 139.373 146.188 185.36C145.045 187.884 142.049 194.221 142.049 194.221L142.877 188.887C142.877 188.887 142.007 186.498 143.271 183.986Z" fill="url(#paint24_linear_2029_9)"/>
<path d="M143.189 182.841C164.444 136.979 209.964 98.356 262.81 105.713C263.694 105.825 264.627 105.587 265.493 105.722C264.627 105.588 263.692 105.83 262.808 105.72C209.793 98.4842 164.322 138.76 145.3 184.748C144.156 187.272 141.161 193.609 141.161 193.609L141.16 188.827C141.16 188.827 141.925 185.352 143.189 182.841Z" fill="url(#paint25_linear_2029_9)"/>
</mask>
<g mask="url(#mask0_2029_9)">
<rect x="-13.0918" y="-3.09329" width="331.216" height="306.577" fill="url(#paint26_linear_2029_9)"/>
</g>
</g>
<defs>
<linearGradient id="paint0_linear_2029_9" x1="6.38167" y1="-3.30216" x2="139.817" y2="279.001" gradientUnits="userSpaceOnUse">
<stop stop-color="#F0F0F0"/>
<stop offset="1" stop-color="#686868"/>
</linearGradient>
<linearGradient id="paint1_linear_2029_9" x1="-16.31" y1="21.2231" x2="131.687" y2="243.773" gradientUnits="userSpaceOnUse">
<stop stop-color="#F2F2F2"/>
<stop offset="0.226398" stop-color="#D4D4D4"/>
<stop offset="0.730106" stop-color="#404040"/>
<stop offset="1" stop-color="#343434"/>
</linearGradient>
<linearGradient id="paint2_linear_2029_9" x1="29.6766" y1="104.139" x2="143.677" y2="251.185" gradientUnits="userSpaceOnUse">
<stop stop-color="#D0CFCF"/>
<stop offset="0.270601" stop-color="#D6D6D6"/>
<stop offset="1" stop-color="#888888"/>
</linearGradient>
<radialGradient id="paint3_radial_2029_9" cx="0" cy="0" r="1" gradientTransform="matrix(12.5288 136.754 102.831 -9.27613 25.7578 113.575)" gradientUnits="userSpaceOnUse">
<stop stop-color="#DBDBDB"/>
<stop offset="1" stop-color="#CBCBCA" stop-opacity="0"/>
</radialGradient>
<linearGradient id="paint4_linear_2029_9" x1="66.1693" y1="113.949" x2="73.6887" y2="198.59" gradientUnits="userSpaceOnUse">
<stop stop-color="#C8C8C8"/>
<stop offset="1" stop-color="#828282"/>
</linearGradient>
<radialGradient id="paint5_radial_2029_9" cx="0" cy="0" r="1" gradientTransform="matrix(58.1694 134.093 -114.549 48.9302 11.4319 91.3807)" gradientUnits="userSpaceOnUse">
<stop stop-color="white"/>
<stop offset="1" stop-color="#A5A5A5" stop-opacity="0"/>
</radialGradient>
<radialGradient id="paint6_radial_2029_9" cx="0" cy="0" r="1" gradientTransform="matrix(-66.2239 -34.6325 -155.403 292.592 273.85 70.0806)" gradientUnits="userSpaceOnUse">
<stop stop-color="#3A3A3A"/>
<stop offset="1" stop-color="white"/>
</radialGradient>
<radialGradient id="paint7_radial_2029_9" cx="0" cy="0" r="1" gradientTransform="matrix(-34.9018 169.611 193.488 39.2032 180.779 46.9923)" gradientUnits="userSpaceOnUse">
<stop stop-color="white"/>
<stop offset="1" stop-color="#292929" stop-opacity="0.75"/>
</radialGradient>
<linearGradient id="paint8_linear_2029_9" x1="292.482" y1="19.2132" x2="111.631" y2="223.079" gradientUnits="userSpaceOnUse">
<stop stop-color="#696969"/>
<stop offset="0.269894" stop-color="#868685"/>
<stop offset="0.773602" stop-color="#BBB9B9"/>
</linearGradient>
<linearGradient id="paint9_linear_2029_9" x1="246.505" y1="102.13" x2="142.471" y2="249.975" gradientUnits="userSpaceOnUse">
<stop stop-color="#8A8888"/>
<stop offset="0.270601" stop-color="#666565"/>
<stop offset="1" stop-color="#424141"/>
</linearGradient>
<radialGradient id="paint10_radial_2029_9" cx="0" cy="0" r="1" gradientTransform="matrix(-12.6897 135.63 -101.986 -9.3952 250.585 112.689)" gradientUnits="userSpaceOnUse">
<stop stop-color="#898887"/>
<stop offset="1" stop-color="#646060" stop-opacity="0"/>
</radialGradient>
<linearGradient id="paint11_linear_2029_9" x1="141.389" y1="192.38" x2="205.418" y2="102.551" gradientUnits="userSpaceOnUse">
<stop stop-color="#3B3B3B"/>
<stop offset="1" stop-color="#484848" stop-opacity="0"/>
</linearGradient>
<linearGradient id="paint12_linear_2029_9" x1="142.276" y1="187.06" x2="204.544" y2="102.553" gradientUnits="userSpaceOnUse">
<stop stop-color="#DEDEDE"/>
<stop offset="1" stop-color="#999999"/>
</linearGradient>
<linearGradient id="paint13_linear_2029_9" x1="6.38167" y1="-3.30277" x2="139.817" y2="279" gradientUnits="userSpaceOnUse">
<stop stop-color="#F0F0F0"/>
<stop offset="1" stop-color="#686868"/>
</linearGradient>
<linearGradient id="paint14_linear_2029_9" x1="-16.31" y1="21.2225" x2="131.687" y2="243.773" gradientUnits="userSpaceOnUse">
<stop stop-color="#F2F2F2"/>
<stop offset="0.226398" stop-color="#D4D4D4"/>
<stop offset="0.730106" stop-color="#404040"/>
<stop offset="1" stop-color="#343434"/>
</linearGradient>
<linearGradient id="paint15_linear_2029_9" x1="29.6766" y1="104.139" x2="143.677" y2="251.185" gradientUnits="userSpaceOnUse">
<stop stop-color="#D0CFCF"/>
<stop offset="0.270601" stop-color="#D6D6D6"/>
<stop offset="1" stop-color="#888888"/>
</linearGradient>
<radialGradient id="paint16_radial_2029_9" cx="0" cy="0" r="1" gradientTransform="matrix(12.5288 136.754 102.831 -9.27613 25.7578 113.575)" gradientUnits="userSpaceOnUse">
<stop stop-color="#DBDBDB"/>
<stop offset="1" stop-color="#CBCBCA" stop-opacity="0"/>
</radialGradient>
<linearGradient id="paint17_linear_2029_9" x1="66.1693" y1="113.948" x2="73.6887" y2="198.589" gradientUnits="userSpaceOnUse">
<stop stop-color="#C8C8C8"/>
<stop offset="1" stop-color="#828282"/>
</linearGradient>
<radialGradient id="paint18_radial_2029_9" cx="0" cy="0" r="1" gradientTransform="matrix(58.1694 134.093 -114.549 48.9302 11.4319 91.3808)" gradientUnits="userSpaceOnUse">
<stop stop-color="white"/>
<stop offset="1" stop-color="#A5A5A5" stop-opacity="0"/>
</radialGradient>
<radialGradient id="paint19_radial_2029_9" cx="0" cy="0" r="1" gradientTransform="matrix(-66.2239 -34.6325 -155.403 292.592 273.85 70.08)" gradientUnits="userSpaceOnUse">
<stop stop-color="#3A3A3A"/>
<stop offset="1" stop-color="white"/>
</radialGradient>
<radialGradient id="paint20_radial_2029_9" cx="0" cy="0" r="1" gradientTransform="matrix(-34.9018 169.611 193.488 39.2032 180.779 46.9916)" gradientUnits="userSpaceOnUse">
<stop stop-color="white"/>
<stop offset="1" stop-color="#292929" stop-opacity="0.75"/>
</radialGradient>
<linearGradient id="paint21_linear_2029_9" x1="292.482" y1="19.2126" x2="111.631" y2="223.079" gradientUnits="userSpaceOnUse">
<stop stop-color="#696969"/>
<stop offset="0.269894" stop-color="#868685"/>
<stop offset="0.773602" stop-color="#BBB9B9"/>
</linearGradient>
<linearGradient id="paint22_linear_2029_9" x1="246.505" y1="102.13" x2="142.471" y2="249.974" gradientUnits="userSpaceOnUse">
<stop stop-color="#8A8888"/>
<stop offset="0.270601" stop-color="#666565"/>
<stop offset="1" stop-color="#424141"/>
</linearGradient>
<radialGradient id="paint23_radial_2029_9" cx="0" cy="0" r="1" gradientTransform="matrix(-12.6897 135.63 -101.986 -9.3952 250.585 112.689)" gradientUnits="userSpaceOnUse">
<stop stop-color="#898887"/>
<stop offset="1" stop-color="#646060" stop-opacity="0"/>
</radialGradient>
<linearGradient id="paint24_linear_2029_9" x1="141.389" y1="192.38" x2="205.418" y2="102.551" gradientUnits="userSpaceOnUse">
<stop stop-color="#3B3B3B"/>
<stop offset="1" stop-color="#484848" stop-opacity="0"/>
</linearGradient>
<linearGradient id="paint25_linear_2029_9" x1="142.276" y1="187.059" x2="204.544" y2="102.552" gradientUnits="userSpaceOnUse">
<stop stop-color="#DEDEDE"/>
<stop offset="1" stop-color="#999999"/>
</linearGradient>
<linearGradient id="paint26_linear_2029_9" x1="137.461" y1="251.572" x2="137.461" y2="274.955" gradientUnits="userSpaceOnUse">
<stop stop-color="#C2F6B8" stop-opacity="0"/>
<stop offset="1" stop-color="#8A9E72"/>
</linearGradient>
</defs>
</svg>
