<svg width="60" height="68" viewBox="0 0 60 68" fill="none" xmlns="http://www.w3.org/2000/svg">
<g opacity="0.2" filter="url(#filter0_f_1_4735)">
<ellipse cx="30.0633" cy="60.7767" rx="5.54967" ry="1.28069" fill="#191919"/>
</g>
<path d="M10.8528 41.7602C-3.99092 29.6488 1.61837 17.9337 0.318751 1.80778C0.258475 1.05986 0.897688 0.437195 1.63419 0.580767C10.4848 2.30609 25.4288 9.23042 28.6351 26.194C30.0831 33.8545 29.3479 44.3553 29.334 57.3707C29.3336 57.7465 28.8517 57.9032 28.6266 57.6023C25.9275 53.9943 24.9849 53.291 10.8528 41.7602Z" fill="url(#paint0_linear_1_4735)"/>
<path d="M9.94898 40.4841C-2.77582 30.0471 1.4708 15.4176 0.958691 2.35963C0.929979 1.62753 1.56208 1.03637 2.27994 1.18301C10.5767 2.87786 25.1748 10.0356 28.1416 25.7318C29.4774 32.7986 29.3815 45.0023 29.4013 57.1586C29.402 57.5431 28.8962 57.7006 28.6691 57.3903C25.7728 53.4324 22.0926 50.4444 9.94898 40.4841Z" fill="url(#paint1_linear_1_4735)"/>
<g opacity="0.6">
<path d="M29.4066 57.407L29.3711 43.5091C29.3664 41.6488 28.9652 39.7883 28.0555 38.1649C17.4402 19.2205 0.962876 23.3083 0.962876 23.3083C0.962876 23.3083 1.20094 33.7252 9.76095 40.4433C14.6554 44.2846 16.108 45.9138 21.0014 49.7564C24.9011 52.8187 27.4347 55.9906 28.6224 57.6489C28.8526 57.9703 29.4076 57.8022 29.4066 57.407Z" fill="url(#paint2_linear_1_4735)"/>
<path d="M29.4066 57.407L29.3711 43.5091C29.3664 41.6488 28.9652 39.7883 28.0555 38.1649C17.4402 19.2205 0.962876 23.3083 0.962876 23.3083C0.962876 23.3083 1.20094 33.7252 9.76095 40.4433C14.6554 44.2846 16.108 45.9138 21.0014 49.7564C24.9011 52.8187 27.4347 55.9906 28.6224 57.6489C28.8526 57.9703 29.4076 57.8022 29.4066 57.407Z" fill="url(#paint3_radial_1_4735)"/>
</g>
<path d="M28.894 40.1296C24.2733 30.1597 14.1999 21.5161 2.7117 23.1156C2.51948 23.1398 2.31673 23.0881 2.12851 23.1174C2.31678 23.0884 2.51987 23.1409 2.71214 23.1171C13.9929 21.8234 24.1245 30.431 28.2597 40.4283C28.5084 40.977 29.1595 42.3545 29.1595 42.3545L28.9796 41.195C28.9796 41.195 29.1687 40.6756 28.894 40.1296Z" fill="url(#paint4_linear_1_4735)"/>
<path d="M29.0842 39.9972C24.4635 30.0273 14.3924 21.515 2.90429 23.1145C2.71207 23.1387 2.50932 23.087 2.3211 23.1163C2.50937 23.0873 2.71246 23.1398 2.90473 23.116C14.4298 21.5429 24.3146 30.2986 28.4499 40.2959C28.6986 40.8446 29.3497 42.2221 29.3497 42.2221L29.1698 41.0626C29.1698 41.0626 29.3589 40.5432 29.0842 39.9972Z" fill="#3F3F3F"/>
<path d="M0.394531 1.80847C0.33467 1.06052 0.974436 0.437361 1.71094 0.580933C10.5616 2.30632 25.5055 9.23095 28.7119 26.1942C30.1571 33.8402 29.6391 44.7532 29.6357 57.7616C29.6354 58.1443 29.14 58.2947 28.9229 57.9794C28.7961 57.7953 28.6714 57.6192 28.5508 57.4471C27.9576 56.6332 27.0836 55.5123 25.9219 54.245C23.7467 52.0363 20.0367 49.0286 11.0039 41.8329C-4.0619 29.8312 1.68594 17.9447 0.394531 1.80847Z" fill="url(#paint5_radial_1_4735)"/>
<path d="M48.8317 41.5152C63.3369 30.3426 58.9356 18.6647 59.4972 1.45854C59.5159 0.883869 59.1188 0.372892 58.5439 0.380188C52.0894 0.462097 33.5753 9.16428 31.5205 26.3208C30.5489 34.4323 30.2064 44.4778 30.52 57.5085C30.5285 57.8625 30.9656 58.0196 31.1937 57.7488C34.4428 53.8924 34.9188 52.2314 48.8317 41.5152Z" fill="url(#paint6_radial_1_4735)"/>
<path d="M48.8317 41.5152C63.3369 30.3426 58.9356 18.6647 59.4972 1.45854C59.5159 0.883869 59.1188 0.372892 58.5439 0.380188C52.0894 0.462097 33.5753 9.16428 31.5205 26.3208C30.5489 34.4323 30.2064 44.4778 30.52 57.5085C30.5285 57.8625 30.9656 58.0196 31.1937 57.7488C34.4428 53.8924 34.9188 52.2314 48.8317 41.5152Z" fill="url(#paint7_radial_1_4735)"/>
<path d="M50.0901 40.0471C62.8149 29.6102 58.5683 14.9807 59.0804 1.9227C59.1091 1.19061 58.477 0.599446 57.7591 0.74609C49.4624 2.44094 34.8642 9.59866 31.8974 25.2948C30.5617 32.3617 30.6576 44.5654 30.6377 56.7217C30.6371 57.1062 31.1429 57.2636 31.37 56.9533C34.2663 52.9955 37.9464 50.0075 50.0901 40.0471Z" fill="url(#paint8_linear_1_4735)"/>
<path d="M30.6341 57.1026L30.6699 43.0724C30.6746 41.212 31.0758 39.3515 31.9855 37.7281C42.6008 18.7838 59.0781 22.8715 59.0781 22.8715C59.0781 22.8715 58.7536 33.5267 50.1936 40.2448C45.2992 44.0861 44.2274 44.9126 39.299 49.0466C35.3766 52.3366 32.628 55.701 31.3826 57.3474C31.1505 57.6542 30.6331 57.4872 30.6341 57.1026Z" fill="url(#paint9_linear_1_4735)"/>
<path d="M30.6341 57.1026L30.6699 43.0724C30.6746 41.212 31.0758 39.3515 31.9855 37.7281C42.6008 18.7838 59.0781 22.8715 59.0781 22.8715C59.0781 22.8715 58.7536 33.5267 50.1936 40.2448C45.2992 44.0861 44.2274 44.9126 39.299 49.0466C35.3766 52.3366 32.628 55.701 31.3826 57.3474C31.1505 57.6542 30.6331 57.4872 30.6341 57.1026Z" fill="url(#paint10_radial_1_4735)"/>
<path d="M31.147 39.6927C35.7677 29.7227 45.8412 21.0792 57.3293 22.6786C57.5215 22.7029 57.7243 22.6512 57.9125 22.6804C57.7242 22.6514 57.5211 22.704 57.3289 22.6801C46.0482 21.3864 35.9166 29.994 31.7813 39.9913C31.5326 40.54 30.8815 41.9176 30.8815 41.9176L31.0614 40.758C31.0614 40.758 30.8723 40.2386 31.147 39.6927Z" fill="url(#paint11_linear_1_4735)"/>
<path d="M31.1304 39.4438C35.751 29.4738 45.6468 21.0775 57.135 22.677C57.3272 22.7012 57.5299 22.6495 57.7182 22.6788C57.5299 22.6498 57.3268 22.7023 57.1345 22.6784C45.6095 21.1054 35.7246 29.861 31.5894 39.8584C31.3407 40.4071 30.6895 41.7846 30.6895 41.7846L30.6893 40.745C30.6893 40.745 30.8556 39.9897 31.1304 39.4438Z" fill="url(#paint12_linear_1_4735)"/>
<g style="mix-blend-mode:multiply">
<mask id="mask0_1_4735" style="mask-type:alpha" maskUnits="userSpaceOnUse" x="0" y="0" width="60" height="59">
<path d="M10.8528 41.7601C-3.99092 29.6487 1.61837 17.9336 0.318751 1.80765C0.258475 1.05974 0.897688 0.437073 1.63419 0.580644C10.4848 2.30597 25.4288 9.23029 28.6351 26.1939C30.0831 33.8543 29.3479 44.3552 29.334 57.3706C29.3336 57.7464 28.8517 57.9031 28.6266 57.6022C25.9275 53.9942 24.9849 53.2909 10.8528 41.7601Z" fill="url(#paint13_linear_1_4735)"/>
<path d="M9.94898 40.4839C-2.77582 30.047 1.4708 15.4175 0.958691 2.3595C0.929979 1.62741 1.56208 1.03624 2.27994 1.18289C10.5767 2.87774 25.1748 10.0355 28.1416 25.7316C29.4774 32.7985 29.3815 45.0021 29.4013 57.1585C29.402 57.543 28.8962 57.7004 28.6691 57.3901C25.7728 53.4323 22.0926 50.4443 9.94898 40.4839Z" fill="url(#paint14_linear_1_4735)"/>
<g opacity="0.6">
<path d="M29.4066 57.407L29.3711 43.5092C29.3664 41.6488 28.9652 39.7883 28.0555 38.1649C17.4402 19.2206 0.962876 23.3083 0.962876 23.3083C0.962876 23.3083 1.20094 33.7252 9.76095 40.4433C14.6554 44.2846 16.108 45.9138 21.0014 49.7564C24.9011 52.8187 27.4347 55.9906 28.6224 57.6489C28.8526 57.9704 29.4076 57.8023 29.4066 57.407Z" fill="url(#paint15_linear_1_4735)"/>
<path d="M29.4066 57.407L29.3711 43.5092C29.3664 41.6488 28.9652 39.7883 28.0555 38.1649C17.4402 19.2206 0.962876 23.3083 0.962876 23.3083C0.962876 23.3083 1.20094 33.7252 9.76095 40.4433C14.6554 44.2846 16.108 45.9138 21.0014 49.7564C24.9011 52.8187 27.4347 55.9906 28.6224 57.6489C28.8526 57.9704 29.4076 57.8023 29.4066 57.407Z" fill="url(#paint16_radial_1_4735)"/>
</g>
<path d="M28.894 40.1295C24.2733 30.1595 14.1999 21.516 2.7117 23.1155C2.51948 23.1397 2.31673 23.088 2.12851 23.1173C2.31678 23.0883 2.51987 23.1408 2.71214 23.1169C13.9929 21.8233 24.1245 30.4308 28.2597 40.4282C28.5084 40.9769 29.1595 42.3544 29.1595 42.3544L28.9796 41.1949C28.9796 41.1949 29.1687 40.6754 28.894 40.1295Z" fill="url(#paint17_linear_1_4735)"/>
<path d="M29.0842 39.9973C24.4635 30.0273 14.3924 21.5151 2.90429 23.1145C2.71207 23.1387 2.50932 23.0871 2.3211 23.1163C2.50937 23.0873 2.71246 23.1399 2.90473 23.116C14.4298 21.5429 24.3146 30.2986 28.4499 40.2959C28.6986 40.8446 29.3497 42.2221 29.3497 42.2221L29.1698 41.0626C29.1698 41.0626 29.3589 40.5432 29.0842 39.9973Z" fill="#3F3F3F"/>
<path d="M0.394531 1.80847C0.33467 1.06052 0.974436 0.437361 1.71094 0.580933C10.5616 2.30632 25.5055 9.23095 28.7119 26.1942C30.1571 33.8402 29.6391 44.7532 29.6357 57.7616C29.6354 58.1443 29.14 58.2947 28.9229 57.9794C28.7961 57.7953 28.6714 57.6192 28.5508 57.4471C27.9576 56.6332 27.0836 55.5123 25.9219 54.245C23.7467 52.0363 20.0367 49.0286 11.0039 41.8329C-4.0619 29.8312 1.68594 17.9447 0.394531 1.80847Z" fill="url(#paint18_radial_1_4735)"/>
<path d="M48.8317 41.515C63.3369 30.3425 58.9356 18.6645 59.4972 1.45839C59.5159 0.883716 59.1188 0.37274 58.5439 0.380036C52.0894 0.461944 33.5753 9.16413 31.5205 26.3206C30.5489 34.4321 30.2064 44.4776 30.52 57.5084C30.5285 57.8623 30.9656 58.0195 31.1937 57.7487C34.4428 53.8923 34.9188 52.2313 48.8317 41.515Z" fill="url(#paint19_radial_1_4735)"/>
<path d="M48.8317 41.515C63.3369 30.3425 58.9356 18.6645 59.4972 1.45839C59.5159 0.883716 59.1188 0.37274 58.5439 0.380036C52.0894 0.461944 33.5753 9.16413 31.5205 26.3206C30.5489 34.4321 30.2064 44.4776 30.52 57.5084C30.5285 57.8623 30.9656 58.0195 31.1937 57.7487C34.4428 53.8923 34.9188 52.2313 48.8317 41.515Z" fill="url(#paint20_radial_1_4735)"/>
<path d="M50.0901 40.047C62.8149 29.61 58.5683 14.9806 59.0804 1.92258C59.1091 1.19049 58.477 0.599324 57.7591 0.745968C49.4624 2.44082 34.8642 9.59854 31.8974 25.2947C30.5617 32.3616 30.6576 44.5652 30.6377 56.7216C30.6371 57.1061 31.1429 57.2635 31.37 56.9532C34.2663 52.9954 37.9464 50.0074 50.0901 40.047Z" fill="url(#paint21_linear_1_4735)"/>
<path d="M30.6341 57.1025L30.6699 43.0723C30.6746 41.2119 31.0758 39.3514 31.9855 37.728C42.6008 18.7836 59.0781 22.8714 59.0781 22.8714C59.0781 22.8714 58.7536 33.5266 50.1936 40.2447C45.2992 44.086 44.2274 44.9125 39.299 49.0464C35.3766 52.3365 32.628 55.7009 31.3826 57.3473C31.1505 57.6541 30.6331 57.4871 30.6341 57.1025Z" fill="url(#paint22_linear_1_4735)"/>
<path d="M30.6341 57.1025L30.6699 43.0723C30.6746 41.2119 31.0758 39.3514 31.9855 37.728C42.6008 18.7836 59.0781 22.8714 59.0781 22.8714C59.0781 22.8714 58.7536 33.5266 50.1936 40.2447C45.2992 44.086 44.2274 44.9125 39.299 49.0464C35.3766 52.3365 32.628 55.7009 31.3826 57.3473C31.1505 57.6541 30.6331 57.4871 30.6341 57.1025Z" fill="url(#paint23_radial_1_4735)"/>
<path d="M31.147 39.6927C35.7677 29.7227 45.8412 21.0792 57.3293 22.6786C57.5215 22.7029 57.7243 22.6512 57.9125 22.6804C57.7242 22.6514 57.5211 22.704 57.3289 22.6801C46.0482 21.3864 35.9166 29.994 31.7813 39.9913C31.5326 40.54 30.8815 41.9176 30.8815 41.9176L31.0614 40.758C31.0614 40.758 30.8723 40.2386 31.147 39.6927Z" fill="url(#paint24_linear_1_4735)"/>
<path d="M31.1304 39.4437C35.751 29.4737 45.6468 21.0774 57.135 22.6768C57.3272 22.7011 57.5299 22.6494 57.7182 22.6787C57.5299 22.6496 57.3268 22.7022 57.1345 22.6783C45.6095 21.1053 35.7246 29.8609 31.5894 39.8582C31.3407 40.4069 30.6895 41.7845 30.6895 41.7845L30.6893 40.7449C30.6893 40.7449 30.8556 39.9896 31.1304 39.4437Z" fill="url(#paint25_linear_1_4735)"/>
</mask>
<g mask="url(#mask0_1_4735)">
<rect x="-2.8457" y="-0.976807" width="72.0034" height="66.6471" fill="url(#paint26_linear_1_4735)"/>
</g>
</g>
<defs>
<filter id="filter0_f_1_4735" x="19.0494" y="54.0317" width="22.0282" height="13.49" filterUnits="userSpaceOnUse" color-interpolation-filters="sRGB">
<feFlood flood-opacity="0" result="BackgroundImageFix"/>
<feBlend mode="normal" in="SourceGraphic" in2="BackgroundImageFix" result="shape"/>
<feGaussianBlur stdDeviation="2.73214" result="effect1_foregroundBlur_1_4735"/>
</filter>
<linearGradient id="paint0_linear_1_4735" x1="1.3869" y1="-1.0222" x2="30.3945" y2="60.348" gradientUnits="userSpaceOnUse">
<stop stop-color="#F0F0F0"/>
<stop offset="1" stop-color="#686868"/>
</linearGradient>
<linearGradient id="paint1_linear_1_4735" x1="-3.54624" y1="4.30935" x2="28.627" y2="52.6898" gradientUnits="userSpaceOnUse">
<stop stop-color="#F2F2F2"/>
<stop offset="0.226398" stop-color="#D4D4D4"/>
<stop offset="0.730106" stop-color="#404040"/>
<stop offset="1" stop-color="#343434"/>
</linearGradient>
<linearGradient id="paint2_linear_1_4735" x1="6.45042" y1="22.3347" x2="31.2331" y2="54.3011" gradientUnits="userSpaceOnUse">
<stop stop-color="#D0CFCF"/>
<stop offset="0.270601" stop-color="#D6D6D6"/>
<stop offset="1" stop-color="#888888"/>
</linearGradient>
<radialGradient id="paint3_radial_1_4735" cx="0" cy="0" r="1" gradientTransform="matrix(2.72366 29.7292 22.3545 -2.01655 5.59851 24.3858)" gradientUnits="userSpaceOnUse">
<stop stop-color="#DBDBDB"/>
<stop offset="1" stop-color="#CBCBCA" stop-opacity="0"/>
</radialGradient>
<linearGradient id="paint4_linear_1_4735" x1="14.3845" y1="24.4671" x2="16.0192" y2="42.8673" gradientUnits="userSpaceOnUse">
<stop stop-color="#C8C8C8"/>
<stop offset="1" stop-color="#828282"/>
</linearGradient>
<radialGradient id="paint5_radial_1_4735" cx="0" cy="0" r="1" gradientTransform="matrix(12.6455 29.1506 -24.902 10.637 2.48571 19.5608)" gradientUnits="userSpaceOnUse">
<stop stop-color="white"/>
<stop offset="1" stop-color="#A5A5A5" stop-opacity="0"/>
</radialGradient>
<radialGradient id="paint6_radial_1_4735" cx="0" cy="0" r="1" gradientTransform="matrix(-14.3965 -7.52881 -33.7833 63.607 59.5346 14.9306)" gradientUnits="userSpaceOnUse">
<stop stop-color="#3A3A3A"/>
<stop offset="1" stop-color="white"/>
</radialGradient>
<radialGradient id="paint7_radial_1_4735" cx="0" cy="0" r="1" gradientTransform="matrix(-7.58735 36.8719 42.0625 8.52243 39.3017 9.91137)" gradientUnits="userSpaceOnUse">
<stop stop-color="white"/>
<stop offset="1" stop-color="#292929" stop-opacity="0.75"/>
</radialGradient>
<linearGradient id="paint8_linear_1_4735" x1="63.5853" y1="3.87243" x2="24.2699" y2="48.1911" gradientUnits="userSpaceOnUse">
<stop stop-color="#696969"/>
<stop offset="0.269894" stop-color="#868685"/>
<stop offset="0.773602" stop-color="#BBB9B9"/>
</linearGradient>
<linearGradient id="paint9_linear_1_4735" x1="53.5906" y1="21.8979" x2="30.9745" y2="54.038" gradientUnits="userSpaceOnUse">
<stop stop-color="#8A8888"/>
<stop offset="0.270601" stop-color="#666565"/>
<stop offset="1" stop-color="#424141"/>
</linearGradient>
<radialGradient id="paint10_radial_1_4735" cx="0" cy="0" r="1" gradientTransform="matrix(-2.75862 29.4848 -22.1708 -2.04243 54.4775 24.1933)" gradientUnits="userSpaceOnUse">
<stop stop-color="#898887"/>
<stop offset="1" stop-color="#646060" stop-opacity="0"/>
</radialGradient>
<linearGradient id="paint11_linear_1_4735" x1="30.7379" y1="41.5174" x2="44.6573" y2="21.9893" gradientUnits="userSpaceOnUse">
<stop stop-color="#3B3B3B"/>
<stop offset="1" stop-color="#484848" stop-opacity="0"/>
</linearGradient>
<linearGradient id="paint12_linear_1_4735" x1="30.932" y1="40.3608" x2="44.4685" y2="21.9897" gradientUnits="userSpaceOnUse">
<stop stop-color="#DEDEDE"/>
<stop offset="1" stop-color="#999999"/>
</linearGradient>
<linearGradient id="paint13_linear_1_4735" x1="1.3869" y1="-1.02232" x2="30.3945" y2="60.3478" gradientUnits="userSpaceOnUse">
<stop stop-color="#F0F0F0"/>
<stop offset="1" stop-color="#686868"/>
</linearGradient>
<linearGradient id="paint14_linear_1_4735" x1="-3.54624" y1="4.30923" x2="28.627" y2="52.6897" gradientUnits="userSpaceOnUse">
<stop stop-color="#F2F2F2"/>
<stop offset="0.226398" stop-color="#D4D4D4"/>
<stop offset="0.730106" stop-color="#404040"/>
<stop offset="1" stop-color="#343434"/>
</linearGradient>
<linearGradient id="paint15_linear_1_4735" x1="6.45042" y1="22.3347" x2="31.2331" y2="54.3012" gradientUnits="userSpaceOnUse">
<stop stop-color="#D0CFCF"/>
<stop offset="0.270601" stop-color="#D6D6D6"/>
<stop offset="1" stop-color="#888888"/>
</linearGradient>
<radialGradient id="paint16_radial_1_4735" cx="0" cy="0" r="1" gradientTransform="matrix(2.72366 29.7292 22.3545 -2.01655 5.59851 24.3858)" gradientUnits="userSpaceOnUse">
<stop stop-color="#DBDBDB"/>
<stop offset="1" stop-color="#CBCBCA" stop-opacity="0"/>
</radialGradient>
<linearGradient id="paint17_linear_1_4735" x1="14.3845" y1="24.467" x2="16.0192" y2="42.8672" gradientUnits="userSpaceOnUse">
<stop stop-color="#C8C8C8"/>
<stop offset="1" stop-color="#828282"/>
</linearGradient>
<radialGradient id="paint18_radial_1_4735" cx="0" cy="0" r="1" gradientTransform="matrix(12.6455 29.1506 -24.902 10.637 2.48571 19.5608)" gradientUnits="userSpaceOnUse">
<stop stop-color="white"/>
<stop offset="1" stop-color="#A5A5A5" stop-opacity="0"/>
</radialGradient>
<radialGradient id="paint19_radial_1_4735" cx="0" cy="0" r="1" gradientTransform="matrix(-14.3965 -7.52881 -33.7833 63.607 59.5346 14.9304)" gradientUnits="userSpaceOnUse">
<stop stop-color="#3A3A3A"/>
<stop offset="1" stop-color="white"/>
</radialGradient>
<radialGradient id="paint20_radial_1_4735" cx="0" cy="0" r="1" gradientTransform="matrix(-7.58735 36.8719 42.0625 8.52243 39.3017 9.91122)" gradientUnits="userSpaceOnUse">
<stop stop-color="white"/>
<stop offset="1" stop-color="#292929" stop-opacity="0.75"/>
</radialGradient>
<linearGradient id="paint21_linear_1_4735" x1="63.5853" y1="3.87231" x2="24.2699" y2="48.191" gradientUnits="userSpaceOnUse">
<stop stop-color="#696969"/>
<stop offset="0.269894" stop-color="#868685"/>
<stop offset="0.773602" stop-color="#BBB9B9"/>
</linearGradient>
<linearGradient id="paint22_linear_1_4735" x1="53.5906" y1="21.8978" x2="30.9745" y2="54.0379" gradientUnits="userSpaceOnUse">
<stop stop-color="#8A8888"/>
<stop offset="0.270601" stop-color="#666565"/>
<stop offset="1" stop-color="#424141"/>
</linearGradient>
<radialGradient id="paint23_radial_1_4735" cx="0" cy="0" r="1" gradientTransform="matrix(-2.75862 29.4848 -22.1708 -2.04243 54.4775 24.1932)" gradientUnits="userSpaceOnUse">
<stop stop-color="#898887"/>
<stop offset="1" stop-color="#646060" stop-opacity="0"/>
</radialGradient>
<linearGradient id="paint24_linear_1_4735" x1="30.7379" y1="41.5174" x2="44.6573" y2="21.9893" gradientUnits="userSpaceOnUse">
<stop stop-color="#3B3B3B"/>
<stop offset="1" stop-color="#484848" stop-opacity="0"/>
</linearGradient>
<linearGradient id="paint25_linear_1_4735" x1="30.932" y1="40.3607" x2="44.4685" y2="21.9896" gradientUnits="userSpaceOnUse">
<stop stop-color="#DEDEDE"/>
<stop offset="1" stop-color="#999999"/>
</linearGradient>
<linearGradient id="paint26_linear_1_4735" x1="29.8831" y1="54.3852" x2="29.8831" y2="59.4684" gradientUnits="userSpaceOnUse">
<stop stop-color="#C2F6B8" stop-opacity="0"/>
<stop offset="1" stop-color="#8A9E72"/>
</linearGradient>
</defs>
</svg>
