<svg width="153" height="153" viewBox="0 0 153 153" fill="none" xmlns="http://www.w3.org/2000/svg">
<path d="M27.9956 106.259C-9.60837 75.5769 4.60184 45.8987 1.30946 5.04635C1.15676 3.15163 2.7761 1.57421 4.6419 1.93792C27.0636 6.30874 64.9216 23.8504 73.0443 66.8247C76.7124 86.2313 74.85 112.833 74.8149 145.806C74.8139 146.758 73.593 147.155 73.0228 146.392C66.1849 137.252 63.797 135.471 27.9956 106.259Z" fill="url(#paint0_linear_2001_135)"/>
<path d="M25.7056 103.026C-6.53053 76.586 4.2276 39.5246 2.93025 6.4444C2.85751 4.58977 4.45883 3.09215 6.27742 3.46365C27.2958 7.75727 64.2778 25.8902 71.7937 65.6538C75.1775 83.5566 74.9347 114.472 74.9849 145.269C74.9865 146.243 73.7052 146.641 73.1299 145.855C65.7927 135.829 56.4696 128.259 25.7056 103.026Z" fill="url(#paint1_linear_2001_135)"/>
<g opacity="0.6">
<path d="M74.9996 145.898L74.9098 110.69C74.8977 105.977 73.8814 101.264 71.5769 97.1511C44.6848 49.1587 2.94214 59.5144 2.94214 59.5144C2.94214 59.5144 3.54525 85.9038 25.2306 102.923C37.6299 112.654 41.3097 116.782 53.7063 126.516C63.5857 134.274 70.0042 142.31 73.013 146.511C73.5962 147.325 75.0022 146.899 74.9996 145.898Z" fill="url(#paint2_linear_2001_135)"/>
<path d="M74.9996 145.898L74.9098 110.69C74.8977 105.977 73.8814 101.264 71.5769 97.1511C44.6848 49.1587 2.94214 59.5144 2.94214 59.5144C2.94214 59.5144 3.54525 85.9038 25.2306 102.923C37.6299 112.654 41.3097 116.782 53.7063 126.516C63.5857 134.274 70.0042 142.31 73.013 146.511C73.5962 147.325 75.0022 146.899 74.9996 145.898Z" fill="url(#paint3_radial_2001_135)"/>
</g>
<path d="M73.6983 102.128C61.9926 76.8711 36.4731 54.9742 7.36976 59.0261C6.88281 59.0875 6.36917 58.9566 5.89235 59.0307C6.3693 58.9572 6.8838 59.0903 7.37088 59.0299C35.9487 55.7525 61.6154 77.5584 72.0914 102.885C72.7214 104.275 74.371 107.765 74.371 107.765L73.9151 104.827C73.9151 104.827 74.3942 103.511 73.6983 102.128Z" fill="url(#paint4_linear_2001_135)"/>
<path d="M74.1833 101.793C62.4776 76.5357 36.9642 54.9715 7.86092 59.0233C7.37396 59.0848 6.86033 58.9539 6.3835 59.0279C6.86046 58.9545 7.37495 59.0876 7.86203 59.0271C37.0588 55.0421 62.1005 77.223 72.5765 102.55C73.2065 103.94 74.856 107.429 74.856 107.429L74.4001 104.492C74.4001 104.492 74.8793 103.176 74.1833 101.793Z" fill="#3F3F3F"/>
<path d="M1.5 5.04808C1.34836 3.15334 2.96728 1.57611 4.83301 1.93968C27.2547 6.3105 65.1126 23.852 73.2354 66.8264C76.8964 86.1961 75.5856 113.841 75.5771 146.795C75.5769 147.765 74.3198 148.148 73.7695 147.349C73.4101 146.827 73.0622 146.327 72.7217 145.843C71.2212 143.795 69.0385 141.019 66.167 137.887C60.6564 132.292 51.2579 124.671 28.376 106.443C-9.79014 76.0385 4.77155 45.9263 1.5 5.04808Z" fill="url(#paint5_radial_2001_135)"/>
<path d="M124.2 105.638C160.947 77.3346 149.797 47.7504 151.219 4.1616C151.267 2.70577 150.261 1.4113 148.804 1.42978C132.453 1.63728 85.5505 23.6828 80.3449 67.1459C77.8837 87.695 77.0158 113.144 77.8104 146.155C77.832 147.052 78.9392 147.45 79.5172 146.764C87.7482 136.994 88.9541 132.786 124.2 105.638Z" fill="url(#paint6_radial_2001_135)"/>
<path d="M124.2 105.638C160.947 77.3346 149.797 47.7504 151.219 4.1616C151.267 2.70577 150.261 1.4113 148.804 1.42978C132.453 1.63728 85.5505 23.6828 80.3449 67.1459C77.8837 87.695 77.0158 113.144 77.8104 146.155C77.832 147.052 78.9392 147.45 79.5172 146.764C87.7482 136.994 88.9541 132.786 124.2 105.638Z" fill="url(#paint7_radial_2001_135)"/>
<path d="M127.386 101.919C159.622 75.4791 148.864 38.4177 150.162 5.3375C150.234 3.48287 148.633 1.98525 146.814 2.35675C125.796 6.65037 88.814 24.7833 81.2981 64.5469C77.9142 82.4497 78.1571 113.366 78.1069 144.162C78.1053 145.136 79.3866 145.535 79.9619 144.748C87.2991 134.722 96.6222 127.152 127.386 101.919Z" fill="url(#paint8_linear_2001_135)"/>
<path d="M78.0972 145.127L78.1879 109.583C78.1999 104.87 79.2163 100.157 81.5207 96.0445C108.413 48.0522 150.156 58.4079 150.156 58.4079C150.156 58.4079 149.333 85.401 127.648 102.42C115.249 112.151 112.534 114.245 100.048 124.718C90.1115 133.053 83.1484 141.576 79.9935 145.747C79.4055 146.524 78.0947 146.101 78.0972 145.127Z" fill="url(#paint9_linear_2001_135)"/>
<path d="M78.0972 145.127L78.1879 109.583C78.1999 104.87 79.2163 100.157 81.5207 96.0445C108.413 48.0522 150.156 58.4079 150.156 58.4079C150.156 58.4079 149.333 85.401 127.648 102.42C115.249 112.151 112.534 114.245 100.048 124.718C90.1115 133.053 83.1484 141.576 79.9935 145.747C79.4055 146.524 78.0947 146.101 78.0972 145.127Z" fill="url(#paint10_radial_2001_135)"/>
<path d="M79.4014 101.022C91.107 75.7642 116.627 53.8673 145.73 57.9192C146.217 57.9806 146.73 57.8497 147.207 57.9238C146.73 57.8503 146.216 57.9835 145.729 57.923C117.151 54.6457 91.4842 76.4515 81.0082 101.778C80.3782 103.168 78.7287 106.658 78.7287 106.658L79.1845 103.72C79.1845 103.72 78.7054 102.405 79.4014 101.022Z" fill="url(#paint11_linear_2001_135)"/>
<path d="M79.3554 100.391C91.0611 75.1337 116.13 53.8631 145.234 57.9149C145.721 57.9763 146.234 57.8455 146.711 57.9195C146.234 57.8461 145.72 57.9792 145.233 57.9187C116.036 53.9336 90.9942 76.1146 80.5182 101.441C79.8882 102.831 78.2387 106.321 78.2387 106.321L78.2381 103.687C78.2381 103.687 78.6594 101.774 79.3554 100.391Z" fill="url(#paint12_linear_2001_135)"/>
<g style="mix-blend-mode:multiply">
<mask id="mask0_2001_135" style="mask-type:alpha" maskUnits="userSpaceOnUse" x="1" y="1" width="151" height="147">
<path d="M27.9956 106.259C-9.60837 75.5766 4.60184 45.8984 1.30946 5.04604C1.15676 3.15133 2.7761 1.5739 4.6419 1.93762C27.0636 6.30844 64.9216 23.8501 73.0443 66.8244C76.7124 86.231 74.85 112.833 74.8149 145.806C74.8139 146.757 73.593 147.154 73.0228 146.392C66.1849 137.252 63.797 135.47 27.9956 106.259Z" fill="url(#paint13_linear_2001_135)"/>
<path d="M25.7056 103.026C-6.53053 76.5857 4.2276 39.5243 2.93025 6.4441C2.85751 4.58947 4.45883 3.09184 6.27742 3.46334C27.2958 7.75697 64.2778 25.8899 71.7937 65.6535C75.1775 83.5563 74.9347 114.472 74.9849 145.268C74.9865 146.242 73.7052 146.641 73.1299 145.855C65.7927 135.828 56.4696 128.259 25.7056 103.026Z" fill="url(#paint14_linear_2001_135)"/>
<g opacity="0.6">
<path d="M74.9996 145.898L74.9098 110.69C74.8977 105.977 73.8814 101.264 71.5769 97.1511C44.6848 49.1587 2.94214 59.5144 2.94214 59.5144C2.94214 59.5144 3.54525 85.9039 25.2306 102.923C37.6299 112.654 41.3097 116.782 53.7063 126.516C63.5857 134.274 70.0042 142.31 73.013 146.511C73.5962 147.325 75.0022 146.899 74.9996 145.898Z" fill="url(#paint15_linear_2001_135)"/>
<path d="M74.9996 145.898L74.9098 110.69C74.8977 105.977 73.8814 101.264 71.5769 97.1511C44.6848 49.1587 2.94214 59.5144 2.94214 59.5144C2.94214 59.5144 3.54525 85.9039 25.2306 102.923C37.6299 112.654 41.3097 116.782 53.7063 126.516C63.5857 134.274 70.0042 142.31 73.013 146.511C73.5962 147.325 75.0022 146.899 74.9996 145.898Z" fill="url(#paint16_radial_2001_135)"/>
</g>
<path d="M73.6983 102.128C61.9926 76.8708 36.4731 54.9739 7.36976 59.0258C6.88281 59.0872 6.36917 58.9563 5.89235 59.0304C6.3693 58.9569 6.8838 59.09 7.37088 59.0296C35.9487 55.7522 61.6154 77.5581 72.0914 102.885C72.7214 104.275 74.371 107.764 74.371 107.764L73.9151 104.827C73.9151 104.827 74.3942 103.511 73.6983 102.128Z" fill="url(#paint17_linear_2001_135)"/>
<path d="M74.1833 101.793C62.4776 76.5358 36.9642 54.9715 7.86092 59.0234C7.37396 59.0848 6.86033 58.9539 6.3835 59.028C6.86046 58.9545 7.37495 59.0877 7.86203 59.0272C37.0588 55.0421 62.1005 77.2231 72.5765 102.55C73.2065 103.94 74.856 107.429 74.856 107.429L74.4001 104.492C74.4001 104.492 74.8793 103.176 74.1833 101.793Z" fill="#3F3F3F"/>
<path d="M1.5 5.04814C1.34836 3.15341 2.96728 1.57617 4.83301 1.93974C27.2547 6.31056 65.1126 23.8521 73.2354 66.8265C76.8964 86.1961 75.5856 113.841 75.5771 146.795C75.5769 147.765 74.3198 148.148 73.7695 147.349C73.4101 146.827 73.0622 146.327 72.7217 145.843C71.2212 143.795 69.0385 141.019 66.167 137.887C60.6564 132.292 51.2579 124.671 28.376 106.443C-9.79014 76.0386 4.77155 45.9264 1.5 5.04814Z" fill="url(#paint18_radial_2001_135)"/>
<path d="M124.2 105.638C160.947 77.3343 149.797 47.7501 151.219 4.16129C151.267 2.70546 150.261 1.41099 148.804 1.42947C132.453 1.63698 85.5505 23.6825 80.3449 67.1456C77.8837 87.6947 77.0158 113.143 77.8104 146.155C77.832 147.051 78.9392 147.449 79.5172 146.763C87.7482 136.994 88.9541 132.786 124.2 105.638Z" fill="url(#paint19_radial_2001_135)"/>
<path d="M124.2 105.638C160.947 77.3343 149.797 47.7501 151.219 4.16129C151.267 2.70546 150.261 1.41099 148.804 1.42947C132.453 1.63698 85.5505 23.6825 80.3449 67.1456C77.8837 87.6947 77.0158 113.143 77.8104 146.155C77.832 147.051 78.9392 147.449 79.5172 146.763C87.7482 136.994 88.9541 132.786 124.2 105.638Z" fill="url(#paint20_radial_2001_135)"/>
<path d="M127.386 101.919C159.622 75.4788 148.864 38.4174 150.162 5.3372C150.234 3.48257 148.633 1.98494 146.814 2.35644C125.796 6.65007 88.814 24.783 81.2981 64.5466C77.9142 82.4494 78.1571 113.365 78.1069 144.161C78.1053 145.135 79.3866 145.534 79.9619 144.748C87.2991 134.722 96.6222 127.152 127.386 101.919Z" fill="url(#paint21_linear_2001_135)"/>
<path d="M78.0972 145.126L78.1879 109.583C78.1999 104.87 79.2163 100.157 81.5207 96.0442C108.413 48.0518 150.156 58.4075 150.156 58.4075C150.156 58.4075 149.333 85.4007 127.648 102.42C115.249 112.151 112.534 114.245 100.048 124.718C90.1115 133.052 83.1484 141.576 79.9935 145.746C79.4055 146.524 78.0947 146.101 78.0972 145.126Z" fill="url(#paint22_linear_2001_135)"/>
<path d="M78.0972 145.126L78.1879 109.583C78.1999 104.87 79.2163 100.157 81.5207 96.0442C108.413 48.0518 150.156 58.4075 150.156 58.4075C150.156 58.4075 149.333 85.4007 127.648 102.42C115.249 112.151 112.534 114.245 100.048 124.718C90.1115 133.052 83.1484 141.576 79.9935 145.746C79.4055 146.524 78.0947 146.101 78.0972 145.126Z" fill="url(#paint23_radial_2001_135)"/>
<path d="M79.4014 101.022C91.107 75.7642 116.627 53.8673 145.73 57.9192C146.217 57.9806 146.73 57.8497 147.207 57.9238C146.73 57.8503 146.216 57.9835 145.729 57.923C117.151 54.6457 91.4842 76.4515 81.0082 101.778C80.3782 103.168 78.7287 106.658 78.7287 106.658L79.1845 103.72C79.1845 103.72 78.7054 102.405 79.4014 101.022Z" fill="url(#paint24_linear_2001_135)"/>
<path d="M79.3554 100.391C91.0611 75.1334 116.13 53.8628 145.234 57.9146C145.721 57.976 146.234 57.8451 146.711 57.9192C146.234 57.8458 145.72 57.9789 145.233 57.9184C116.036 53.9333 90.9942 76.1143 80.5182 101.441C79.8882 102.831 78.2387 106.321 78.2387 106.321L78.2381 103.687C78.2381 103.687 78.6594 101.774 79.3554 100.391Z" fill="url(#paint25_linear_2001_135)"/>
</mask>
<g mask="url(#mask0_2001_135)">
<rect x="-6.71094" y="-2.0079" width="182.409" height="168.839" fill="url(#paint26_linear_2001_135)"/>
</g>
</g>
<defs>
<linearGradient id="paint0_linear_2001_135" x1="4.01542" y1="-2.12293" x2="77.5013" y2="153.348" gradientUnits="userSpaceOnUse">
<stop stop-color="#F0F0F0"/>
<stop offset="1" stop-color="#686868"/>
</linearGradient>
<linearGradient id="paint1_linear_2001_135" x1="-8.48226" y1="11.3837" x2="73.0233" y2="133.948" gradientUnits="userSpaceOnUse">
<stop stop-color="#F2F2F2"/>
<stop offset="0.226398" stop-color="#D4D4D4"/>
<stop offset="0.730106" stop-color="#404040"/>
<stop offset="1" stop-color="#343434"/>
</linearGradient>
<linearGradient id="paint2_linear_2001_135" x1="16.8439" y1="57.0478" x2="79.6267" y2="138.03" gradientUnits="userSpaceOnUse">
<stop stop-color="#D0CFCF"/>
<stop offset="0.270601" stop-color="#D6D6D6"/>
<stop offset="1" stop-color="#888888"/>
</linearGradient>
<radialGradient id="paint3_radial_2001_135" cx="0" cy="0" r="1" gradientTransform="matrix(6.89995 75.3139 56.6314 -5.10859 14.6858 62.244)" gradientUnits="userSpaceOnUse">
<stop stop-color="#DBDBDB"/>
<stop offset="1" stop-color="#CBCBCA" stop-opacity="0"/>
</radialGradient>
<linearGradient id="paint4_linear_2001_135" x1="36.941" y1="62.45" x2="41.0821" y2="109.064" gradientUnits="userSpaceOnUse">
<stop stop-color="#C8C8C8"/>
<stop offset="1" stop-color="#828282"/>
</linearGradient>
<radialGradient id="paint5_radial_2001_135" cx="0" cy="0" r="1" gradientTransform="matrix(32.0355 73.8481 -63.0856 26.947 6.7964 50.0212)" gradientUnits="userSpaceOnUse">
<stop stop-color="white"/>
<stop offset="1" stop-color="#A5A5A5" stop-opacity="0"/>
</radialGradient>
<radialGradient id="paint6_radial_2001_135" cx="0" cy="0" r="1" gradientTransform="matrix(-36.4711 -19.073 -85.5842 161.138 151.314 38.2908)" gradientUnits="userSpaceOnUse">
<stop stop-color="#3A3A3A"/>
<stop offset="1" stop-color="white"/>
</radialGradient>
<radialGradient id="paint7_radial_2001_135" cx="0" cy="0" r="1" gradientTransform="matrix(-19.2213 93.4087 106.558 21.5902 100.057 25.5754)" gradientUnits="userSpaceOnUse">
<stop stop-color="white"/>
<stop offset="1" stop-color="#292929" stop-opacity="0.75"/>
</radialGradient>
<linearGradient id="paint8_linear_2001_135" x1="161.574" y1="10.2768" x2="61.975" y2="122.551" gradientUnits="userSpaceOnUse">
<stop stop-color="#696969"/>
<stop offset="0.269894" stop-color="#868685"/>
<stop offset="0.773602" stop-color="#BBB9B9"/>
</linearGradient>
<linearGradient id="paint9_linear_2001_135" x1="136.254" y1="55.9413" x2="78.9597" y2="137.363" gradientUnits="userSpaceOnUse">
<stop stop-color="#8A8888"/>
<stop offset="0.270601" stop-color="#666565"/>
<stop offset="1" stop-color="#424141"/>
</linearGradient>
<radialGradient id="paint10_radial_2001_135" cx="0" cy="0" r="1" gradientTransform="matrix(-6.98852 74.6949 -56.166 -5.17417 138.5 61.7564)" gradientUnits="userSpaceOnUse">
<stop stop-color="#898887"/>
<stop offset="1" stop-color="#646060" stop-opacity="0"/>
</radialGradient>
<linearGradient id="paint11_linear_2001_135" x1="78.3649" y1="105.644" x2="113.627" y2="56.1729" gradientUnits="userSpaceOnUse">
<stop stop-color="#3B3B3B"/>
<stop offset="1" stop-color="#484848" stop-opacity="0"/>
</linearGradient>
<linearGradient id="paint12_linear_2001_135" x1="78.8529" y1="102.714" x2="113.145" y2="56.174" gradientUnits="userSpaceOnUse">
<stop stop-color="#DEDEDE"/>
<stop offset="1" stop-color="#999999"/>
</linearGradient>
<linearGradient id="paint13_linear_2001_135" x1="4.01542" y1="-2.12324" x2="77.5013" y2="153.348" gradientUnits="userSpaceOnUse">
<stop stop-color="#F0F0F0"/>
<stop offset="1" stop-color="#686868"/>
</linearGradient>
<linearGradient id="paint14_linear_2001_135" x1="-8.48226" y1="11.3834" x2="73.0233" y2="133.947" gradientUnits="userSpaceOnUse">
<stop stop-color="#F2F2F2"/>
<stop offset="0.226398" stop-color="#D4D4D4"/>
<stop offset="0.730106" stop-color="#404040"/>
<stop offset="1" stop-color="#343434"/>
</linearGradient>
<linearGradient id="paint15_linear_2001_135" x1="16.8439" y1="57.0479" x2="79.6267" y2="138.03" gradientUnits="userSpaceOnUse">
<stop stop-color="#D0CFCF"/>
<stop offset="0.270601" stop-color="#D6D6D6"/>
<stop offset="1" stop-color="#888888"/>
</linearGradient>
<radialGradient id="paint16_radial_2001_135" cx="0" cy="0" r="1" gradientTransform="matrix(6.89995 75.3139 56.6314 -5.10859 14.6858 62.244)" gradientUnits="userSpaceOnUse">
<stop stop-color="#DBDBDB"/>
<stop offset="1" stop-color="#CBCBCA" stop-opacity="0"/>
</radialGradient>
<linearGradient id="paint17_linear_2001_135" x1="36.941" y1="62.4496" x2="41.0821" y2="109.064" gradientUnits="userSpaceOnUse">
<stop stop-color="#C8C8C8"/>
<stop offset="1" stop-color="#828282"/>
</linearGradient>
<radialGradient id="paint18_radial_2001_135" cx="0" cy="0" r="1" gradientTransform="matrix(32.0355 73.8481 -63.0856 26.947 6.7964 50.0213)" gradientUnits="userSpaceOnUse">
<stop stop-color="white"/>
<stop offset="1" stop-color="#A5A5A5" stop-opacity="0"/>
</radialGradient>
<radialGradient id="paint19_radial_2001_135" cx="0" cy="0" r="1" gradientTransform="matrix(-36.4711 -19.073 -85.5842 161.138 151.314 38.2905)" gradientUnits="userSpaceOnUse">
<stop stop-color="#3A3A3A"/>
<stop offset="1" stop-color="white"/>
</radialGradient>
<radialGradient id="paint20_radial_2001_135" cx="0" cy="0" r="1" gradientTransform="matrix(-19.2213 93.4087 106.558 21.5902 100.057 25.5751)" gradientUnits="userSpaceOnUse">
<stop stop-color="white"/>
<stop offset="1" stop-color="#292929" stop-opacity="0.75"/>
</radialGradient>
<linearGradient id="paint21_linear_2001_135" x1="161.574" y1="10.2765" x2="61.975" y2="122.55" gradientUnits="userSpaceOnUse">
<stop stop-color="#696969"/>
<stop offset="0.269894" stop-color="#868685"/>
<stop offset="0.773602" stop-color="#BBB9B9"/>
</linearGradient>
<linearGradient id="paint22_linear_2001_135" x1="136.254" y1="55.941" x2="78.9597" y2="137.363" gradientUnits="userSpaceOnUse">
<stop stop-color="#8A8888"/>
<stop offset="0.270601" stop-color="#666565"/>
<stop offset="1" stop-color="#424141"/>
</linearGradient>
<radialGradient id="paint23_radial_2001_135" cx="0" cy="0" r="1" gradientTransform="matrix(-6.98852 74.6949 -56.166 -5.17417 138.5 61.7561)" gradientUnits="userSpaceOnUse">
<stop stop-color="#898887"/>
<stop offset="1" stop-color="#646060" stop-opacity="0"/>
</radialGradient>
<linearGradient id="paint24_linear_2001_135" x1="78.3649" y1="105.644" x2="113.627" y2="56.1729" gradientUnits="userSpaceOnUse">
<stop stop-color="#3B3B3B"/>
<stop offset="1" stop-color="#484848" stop-opacity="0"/>
</linearGradient>
<linearGradient id="paint25_linear_2001_135" x1="78.8529" y1="102.714" x2="113.145" y2="56.1737" gradientUnits="userSpaceOnUse">
<stop stop-color="#DEDEDE"/>
<stop offset="1" stop-color="#999999"/>
</linearGradient>
<linearGradient id="paint26_linear_2001_135" x1="76.202" y1="138.242" x2="76.202" y2="151.12" gradientUnits="userSpaceOnUse">
<stop stop-color="#C2F6B8" stop-opacity="0"/>
<stop offset="1" stop-color="#8A9E72"/>
</linearGradient>
</defs>
</svg>
