<svg width="132" height="44" viewBox="0 0 132 44" fill="none" xmlns="http://www.w3.org/2000/svg">
<g filter="url(#filter0_n_1_1542)">
<g filter="url(#filter1_n_1_1542)">
<path d="M15.6906 27.1784C9.27374 21.902 11.7005 16.7983 11.1374 9.77218C11.1115 9.44882 11.3882 9.17978 11.7065 9.24232C15.5317 9.99386 21.9904 13.0098 23.3761 20.3984C24.0019 23.7351 23.6841 28.3091 23.6782 33.9784C23.678 34.1412 23.469 34.2087 23.3721 34.0781C22.2058 32.507 21.7978 32.2002 15.6906 27.1784Z" fill="url(#paint0_linear_1_1542)"/>
<path d="M15.3012 26.623C9.80014 22.0759 11.6378 15.7018 11.4154 10.0132C11.403 9.69665 11.6766 9.44116 11.9869 9.50505C15.5729 10.2434 21.8818 13.361 23.164 20.1974C23.7414 23.2756 23.6999 28.5914 23.7085 33.8864C23.7088 34.0529 23.4894 34.1208 23.3916 33.9861C22.1399 32.2625 20.5491 30.9608 15.3012 26.623Z" fill="url(#paint1_linear_1_1542)"/>
<g opacity="0.6">
<path d="M23.7099 33.994L23.6945 27.9219C23.6925 27.1235 23.5214 26.3252 23.1341 25.627C18.5464 17.3589 11.4165 19.1415 11.4165 19.1415C11.4165 19.1415 11.5194 23.6787 15.219 26.6048C17.3344 28.2779 17.9622 28.9875 20.0771 30.6612C21.7621 31.9946 22.857 33.3757 23.3705 34.0982C23.4696 34.2377 23.7103 34.1652 23.7099 33.994Z" fill="url(#paint2_linear_1_1542)"/>
<path d="M23.7099 33.994L23.6945 27.9219C23.6925 27.1235 23.5214 26.3252 23.1341 25.627C18.5464 17.3589 11.4165 19.1415 11.4165 19.1415C11.4165 19.1415 11.5194 23.6787 15.219 26.6048C17.3344 28.2779 17.9622 28.9875 20.0771 30.6612C21.7621 31.9946 22.857 33.3757 23.3705 34.0982C23.4696 34.2377 23.7103 34.1652 23.7099 33.994Z" fill="url(#paint3_radial_1_1542)"/>
</g>
<path d="M23.4876 26.4683C21.4906 22.1258 17.1368 18.361 12.1716 19.0577C12.0886 19.0683 12.0009 19.0457 11.9196 19.0585C12.001 19.0459 12.0887 19.0687 12.1718 19.0583C17.0474 18.4949 21.4262 22.244 23.2135 26.5984C23.321 26.8374 23.6024 27.4374 23.6024 27.4374L23.5246 26.9324C23.5246 26.9324 23.6064 26.7061 23.4876 26.4683Z" fill="url(#paint4_linear_1_1542)"/>
<path d="M23.5704 26.4107C21.5733 22.0682 17.2206 18.3606 12.2554 19.0572C12.1723 19.0678 12.0847 19.0453 12.0034 19.058C12.0847 19.0454 12.1725 19.0683 12.2556 19.0579C17.2367 18.3727 21.509 22.1863 23.2962 26.5408C23.4037 26.7798 23.6851 27.3798 23.6851 27.3798L23.6074 26.8747C23.6074 26.8747 23.6891 26.6485 23.5704 26.4107Z" fill="#3F3F3F"/>
</g>
<path d="M11.7402 9.24354C15.5655 9.99507 22.0243 13.0114 23.4102 20.3998C24.0348 23.7302 23.811 28.4836 23.8096 34.1498C23.8095 34.3156 23.5945 34.3804 23.501 34.2435C23.4392 34.1532 23.3768 34.0685 23.3184 33.9847C23.0559 33.6238 22.6724 33.1317 22.165 32.5775C21.2195 31.619 19.6067 30.302 15.7568 27.2113C9.24417 21.9828 11.7305 16.8044 11.1709 9.77381C11.1452 9.4506 11.4221 9.18132 11.7402 9.24354Z" fill="url(#paint5_radial_1_1542)"/>
<g filter="url(#filter2_n_1_1542)">
<path d="M32.1068 27.0747C38.3771 22.2075 36.473 17.1201 36.7165 9.62359C36.7246 9.3755 36.5533 9.15478 36.3051 9.1579C33.5161 9.19296 25.513 12.9833 24.6249 20.4566C24.205 23.9898 24.0569 28.3654 24.1925 34.0414C24.1961 34.1948 24.3857 34.2626 24.4841 34.1449C25.888 32.4656 26.0942 31.7418 32.1068 27.0747Z" fill="url(#paint6_radial_1_1542)"/>
<path d="M32.1068 27.0747C38.3771 22.2075 36.473 17.1201 36.7165 9.62359C36.7246 9.3755 36.5533 9.15478 36.3051 9.1579C33.5161 9.19296 25.513 12.9833 24.6249 20.4566C24.205 23.9898 24.0569 28.3654 24.1925 34.0414C24.1961 34.1948 24.3857 34.2626 24.4841 34.1449C25.888 32.4656 26.0942 31.7418 32.1068 27.0747Z" fill="url(#paint7_radial_1_1542)"/>
<path d="M32.651 26.4352C38.152 21.8882 36.3143 15.5141 36.5367 9.8255C36.5491 9.50893 36.2755 9.25344 35.9652 9.31733C32.3793 10.0557 26.0703 13.1733 24.7881 20.0097C24.2108 23.0879 24.2522 28.4036 24.2437 33.6987C24.2434 33.8652 24.4627 33.9331 24.5605 33.7984C25.8123 32.0747 27.403 30.7731 32.651 26.4352Z" fill="url(#paint8_linear_1_1542)"/>
<path d="M24.2421 33.864L24.2576 27.7342C24.2597 26.9358 24.4307 26.1374 24.8181 25.4393C29.4057 17.1712 36.5357 18.9538 36.5357 18.9538C36.5357 18.9538 36.3954 23.5947 32.6958 26.5209C30.5804 28.194 30.1172 28.554 27.9871 30.3545C26.2923 31.7872 25.1045 33.2522 24.5661 33.9695C24.4661 34.1027 24.2417 34.0306 24.2421 33.864Z" fill="url(#paint9_linear_1_1542)"/>
<path d="M24.2421 33.864L24.2576 27.7342C24.2597 26.9358 24.4307 26.1374 24.8181 25.4393C29.4057 17.1712 36.5357 18.9538 36.5357 18.9538C36.5357 18.9538 36.3954 23.5947 32.6958 26.5209C30.5804 28.194 30.1172 28.554 27.9871 30.3545C26.2923 31.7872 25.1045 33.2522 24.5661 33.9695C24.4661 34.1027 24.2417 34.0306 24.2421 33.864Z" fill="url(#paint10_radial_1_1542)"/>
<path d="M24.4645 26.2806C26.4616 21.9381 30.8153 18.1733 35.7805 18.87C35.8636 18.8805 35.9512 18.858 36.0326 18.8708C35.9512 18.8581 35.8634 18.881 35.7803 18.8706C30.9048 18.3072 26.5259 22.0563 24.7386 26.4107C24.6312 26.6497 24.3497 27.2497 24.3497 27.2497L24.4275 26.7447C24.4275 26.7447 24.3458 26.5184 24.4645 26.2806Z" fill="url(#paint11_linear_1_1542)"/>
<path d="M24.4568 26.1727C26.4538 21.8302 30.7308 18.1731 35.696 18.8697C35.7791 18.8803 35.8667 18.8578 35.948 18.8705C35.8667 18.8579 35.7789 18.8808 35.6958 18.8704C30.7147 18.1852 26.4424 21.9988 24.6552 26.3532C24.5477 26.5922 24.2663 27.1922 24.2663 27.1922L24.2662 26.7394C24.2662 26.7394 24.3381 26.4105 24.4568 26.1727Z" fill="url(#paint12_linear_1_1542)"/>
</g>
</g>
<path d="M52.2147 20.3732C52.7323 20.6433 53.1374 21.0146 53.43 21.4872C53.7225 21.9598 53.8688 22.5055 53.8688 23.1244C53.8688 24.092 53.5256 24.8966 52.8392 25.5379C52.1528 26.1793 51.3146 26.5 50.3244 26.5H45.2609V14.6853H49.953C50.9207 14.6853 51.7365 15.0003 52.4004 15.6304C53.0755 16.2493 53.4131 17.0257 53.4131 17.9596C53.4131 18.9836 53.0136 19.7881 52.2147 20.3732ZM49.953 16.5081H47.2019V19.6137H49.953C50.3806 19.6137 50.7407 19.4674 51.0333 19.1749C51.3258 18.8711 51.4721 18.4997 51.4721 18.0609C51.4721 17.6221 51.3258 17.2564 51.0333 16.9638C50.7407 16.66 50.3806 16.5081 49.953 16.5081ZM50.3244 24.6772C50.7745 24.6772 51.1514 24.5196 51.4552 24.2046C51.7703 23.8783 51.9278 23.4844 51.9278 23.0231C51.9278 22.5618 51.7703 22.1736 51.4552 21.8585C51.1514 21.5322 50.7745 21.369 50.3244 21.369H47.2019V24.6772H50.3244ZM62.2106 18.0609H64.0334V26.5H62.2106V25.2848C61.5242 26.2412 60.5396 26.7194 59.2569 26.7194C58.0979 26.7194 57.1077 26.2918 56.2863 25.4367C55.4649 24.5703 55.0542 23.5182 55.0542 22.2804C55.0542 21.0315 55.4649 19.9794 56.2863 19.1242C57.1077 18.2691 58.0979 17.8415 59.2569 17.8415C60.5396 17.8415 61.5242 18.3141 62.2106 19.2592V18.0609ZM57.6366 24.2214C58.1429 24.7278 58.7787 24.981 59.5438 24.981C60.309 24.981 60.9447 24.7278 61.4511 24.2214C61.9574 23.7038 62.2106 23.0568 62.2106 22.2804C62.2106 21.5041 61.9574 20.8627 61.4511 20.3563C60.9447 19.8387 60.309 19.5799 59.5438 19.5799C58.7787 19.5799 58.1429 19.8387 57.6366 20.3563C57.1302 20.8627 56.8771 21.5041 56.8771 22.2804C56.8771 23.0568 57.1302 23.7038 57.6366 24.2214ZM70.1414 26.7194C68.8699 26.7194 67.8065 26.2918 66.9514 25.4367C66.1075 24.5815 65.6855 23.5294 65.6855 22.2804C65.6855 21.0202 66.1075 19.9681 66.9514 19.1242C67.8065 18.2691 68.8699 17.8415 70.1414 17.8415C70.9628 17.8415 71.711 18.0384 72.3862 18.4322C73.0613 18.826 73.5676 19.3549 73.9052 20.0188L72.3355 20.9302C72.1442 20.5251 71.8517 20.2101 71.4579 19.985C71.0753 19.7487 70.6308 19.6306 70.1245 19.6306C69.3818 19.6306 68.7573 19.8837 68.251 20.3901C67.7559 20.8964 67.5084 21.5266 67.5084 22.2804C67.5084 23.0343 67.7559 23.6645 68.251 24.1708C68.7573 24.6772 69.3818 24.9303 70.1245 24.9303C70.6196 24.9303 71.064 24.8122 71.4579 24.5759C71.8629 24.3396 72.1667 24.0245 72.3693 23.6307L73.939 24.5252C73.5789 25.2004 73.0613 25.7349 72.3862 26.1287C71.711 26.5225 70.9628 26.7194 70.1414 26.7194ZM82.7167 26.5H80.5394L77.0794 22.6011V26.5H75.2565V14.6853H77.0794V21.791L80.3537 18.0609H82.5816L78.8684 22.1961L82.7167 26.5ZM89.466 18.0609H91.407L88.1664 26.7701C87.3562 28.953 85.9834 29.9882 84.0481 29.8756V28.1709C84.6219 28.2047 85.0833 28.0809 85.4321 27.7996C85.7809 27.5296 86.0678 27.102 86.2929 26.5169L86.3773 26.3481L82.7991 18.0609H84.7907L87.3056 24.1877L89.466 18.0609ZM98.9009 18.0609H100.724V26.5H98.9009V25.2848C98.2145 26.2412 97.2299 26.7194 95.9472 26.7194C94.7882 26.7194 93.798 26.2918 92.9766 25.4367C92.1552 24.5703 91.7445 23.5182 91.7445 22.2804C91.7445 21.0315 92.1552 19.9794 92.9766 19.1242C93.798 18.2691 94.7882 17.8415 95.9472 17.8415C97.2299 17.8415 98.2145 18.3141 98.9009 19.2592V18.0609ZM94.3269 24.2214C94.8332 24.7278 95.469 24.981 96.2341 24.981C96.9993 24.981 97.635 24.7278 98.1414 24.2214C98.6477 23.7038 98.9009 23.0568 98.9009 22.2804C98.9009 21.5041 98.6477 20.8627 98.1414 20.3563C97.635 19.8387 96.9993 19.5799 96.2341 19.5799C95.469 19.5799 94.8332 19.8387 94.3269 20.3563C93.8205 20.8627 93.5674 21.5041 93.5674 22.2804C93.5674 23.0568 93.8205 23.7038 94.3269 24.2214ZM104.671 19.4787C105.133 18.4322 105.999 17.909 107.271 17.909V19.8837C106.573 19.8387 105.965 20.0075 105.448 20.3901C104.93 20.7614 104.671 21.3803 104.671 22.2467V26.5H102.848V18.0609H104.671V19.4787ZM114.906 14.6853H116.728V26.5H114.906V25.2848C114.219 26.2412 113.235 26.7194 111.952 26.7194C110.793 26.7194 109.803 26.2918 108.981 25.4367C108.16 24.5703 107.749 23.5182 107.749 22.2804C107.749 21.0315 108.16 19.9794 108.981 19.1242C109.803 18.2691 110.793 17.8415 111.952 17.8415C113.235 17.8415 114.219 18.3141 114.906 19.2592V14.6853ZM110.332 24.2214C110.838 24.7278 111.474 24.981 112.239 24.981C113.004 24.981 113.64 24.7278 114.146 24.2214C114.652 23.7038 114.906 23.0568 114.906 22.2804C114.906 21.5041 114.652 20.8627 114.146 20.3563C113.64 19.8387 113.004 19.5799 112.239 19.5799C111.474 19.5799 110.838 19.8387 110.332 20.3563C109.825 20.8627 109.572 21.5041 109.572 22.2804C109.572 23.0568 109.825 23.7038 110.332 24.2214Z" fill="#333333" fill-opacity="0.95"/>
<defs>
<filter id="filter0_n_1_1542" x="11.1338" y="9.15787" width="25.6738" height="25.1599" filterUnits="userSpaceOnUse" color-interpolation-filters="sRGB">
<feFlood flood-opacity="0" result="BackgroundImageFix"/>
<feBlend mode="normal" in="SourceGraphic" in2="BackgroundImageFix" result="shape"/>
<feTurbulence type="fractalNoise" baseFrequency="29.732398986816406 29.732398986816406" stitchTiles="stitch" numOctaves="3" result="noise" seed="6270" />
<feColorMatrix in="noise" type="luminanceToAlpha" result="alphaNoise" />
<feComponentTransfer in="alphaNoise" result="coloredNoise1">
<feFuncA type="discrete" tableValues="0 0 0 0 1 1 1 1 1 1 1 1 1 1 1 1 1 1 1 1 1 1 1 1 1 1 1 1 1 1 1 1 1 1 1 1 1 1 1 1 1 1 1 1 1 1 1 0 0 0 0 0 0 0 0 0 0 0 0 0 0 0 0 0 0 0 0 0 0 0 0 0 0 0 0 0 0 0 0 0 0 0 0 0 0 0 0 0 0 0 0 0 0 0 0 0 0 0 0 0 "/>
</feComponentTransfer>
<feComposite operator="in" in2="shape" in="coloredNoise1" result="noise1Clipped" />
<feFlood flood-color="rgba(0, 0, 0, 0.25)" result="color1Flood" />
<feComposite operator="in" in2="noise1Clipped" in="color1Flood" result="color1" />
<feMerge result="effect1_noise_1_1542">
<feMergeNode in="shape" />
<feMergeNode in="color1" />
</feMerge>
</filter>
<filter id="filter1_n_1_1542" x="11.1338" y="9.23322" width="12.6299" height="24.9385" filterUnits="userSpaceOnUse" color-interpolation-filters="sRGB">
<feFlood flood-opacity="0" result="BackgroundImageFix"/>
<feBlend mode="normal" in="SourceGraphic" in2="BackgroundImageFix" result="shape"/>
<feTurbulence type="fractalNoise" baseFrequency="19.821598052978516 19.821598052978516" stitchTiles="stitch" numOctaves="3" result="noise" seed="5092" />
<feColorMatrix in="noise" type="luminanceToAlpha" result="alphaNoise" />
<feComponentTransfer in="alphaNoise" result="coloredNoise1">
<feFuncA type="discrete" tableValues="1 1 1 1 1 1 1 1 1 1 1 1 1 1 1 1 1 1 1 1 1 1 1 1 1 1 1 1 1 1 1 1 1 1 1 1 1 1 1 1 1 1 1 1 1 1 1 1 1 1 1 0 0 0 0 0 0 0 0 0 0 0 0 0 0 0 0 0 0 0 0 0 0 0 0 0 0 0 0 0 0 0 0 0 0 0 0 0 0 0 0 0 0 0 0 0 0 0 0 0 "/>
</feComponentTransfer>
<feComposite operator="in" in2="shape" in="coloredNoise1" result="noise1Clipped" />
<feFlood flood-color="rgba(131, 123, 123, 0.25)" result="color1Flood" />
<feComposite operator="in" in2="noise1Clipped" in="color1Flood" result="color1" />
<feMerge result="effect1_noise_1_1542">
<feMergeNode in="shape" />
<feMergeNode in="color1" />
</feMerge>
</filter>
<filter id="filter2_n_1_1542" x="24.1436" y="9.15787" width="12.6641" height="25.0467" filterUnits="userSpaceOnUse" color-interpolation-filters="sRGB">
<feFlood flood-opacity="0" result="BackgroundImageFix"/>
<feBlend mode="normal" in="SourceGraphic" in2="BackgroundImageFix" result="shape"/>
<feTurbulence type="fractalNoise" baseFrequency="19.821598052978516 19.821598052978516" stitchTiles="stitch" numOctaves="3" result="noise" seed="5092" />
<feColorMatrix in="noise" type="luminanceToAlpha" result="alphaNoise" />
<feComponentTransfer in="alphaNoise" result="coloredNoise1">
<feFuncA type="discrete" tableValues="1 1 1 1 1 1 1 1 1 1 1 1 1 1 1 1 1 1 1 1 1 1 1 1 1 1 1 1 1 1 1 1 1 1 1 1 1 1 1 1 1 1 1 1 1 1 1 1 1 1 1 0 0 0 0 0 0 0 0 0 0 0 0 0 0 0 0 0 0 0 0 0 0 0 0 0 0 0 0 0 0 0 0 0 0 0 0 0 0 0 0 0 0 0 0 0 0 0 0 0 "/>
</feComponentTransfer>
<feComposite operator="in" in2="shape" in="coloredNoise1" result="noise1Clipped" />
<feFlood flood-color="rgba(131, 123, 123, 0.25)" result="color1Flood" />
<feComposite operator="in" in2="noise1Clipped" in="color1Flood" result="color1" />
<feMerge result="effect1_noise_1_1542">
<feMergeNode in="shape" />
<feMergeNode in="color1" />
</feMerge>
</filter>
<linearGradient id="paint0_linear_1_1542" x1="11.5994" y1="8.5441" x2="24.296" y2="35.1985" gradientUnits="userSpaceOnUse">
<stop stop-color="#F0F0F0"/>
<stop offset="1" stop-color="#686868"/>
</linearGradient>
<linearGradient id="paint1_linear_1_1542" x1="9.46854" y1="10.8667" x2="23.5236" y2="31.8389" gradientUnits="userSpaceOnUse">
<stop stop-color="#F2F2F2"/>
<stop offset="0.226398" stop-color="#D4D4D4"/>
<stop offset="0.730106" stop-color="#404040"/>
<stop offset="1" stop-color="#343434"/>
</linearGradient>
<linearGradient id="paint2_linear_1_1542" x1="13.7882" y1="18.7174" x2="24.6031" y2="32.5596" gradientUnits="userSpaceOnUse">
<stop stop-color="#D0CFCF"/>
<stop offset="0.270601" stop-color="#D6D6D6"/>
<stop offset="1" stop-color="#888888"/>
</linearGradient>
<radialGradient id="paint3_radial_1_1542" cx="0" cy="0" r="1" gradientUnits="userSpaceOnUse" gradientTransform="translate(13.42 19.6108) rotate(84.8056) scale(13.0022 9.70146)">
<stop stop-color="#DBDBDB"/>
<stop offset="1" stop-color="#CBCBCA" stop-opacity="0"/>
</radialGradient>
<linearGradient id="paint4_linear_1_1542" x1="17.2166" y1="19.6464" x2="17.9341" y2="27.6598" gradientUnits="userSpaceOnUse">
<stop stop-color="#C8C8C8"/>
<stop offset="1" stop-color="#828282"/>
</linearGradient>
<radialGradient id="paint5_radial_1_1542" cx="0" cy="0" r="1" gradientTransform="matrix(5.4655 12.6966 -10.7629 4.63295 12.0753 17.5104)" gradientUnits="userSpaceOnUse">
<stop stop-color="white"/>
<stop offset="1" stop-color="#A5A5A5" stop-opacity="0"/>
</radialGradient>
<radialGradient id="paint6_radial_1_1542" cx="0" cy="0" r="1" gradientUnits="userSpaceOnUse" gradientTransform="translate(36.7326 15.4955) rotate(-152.21) scale(7.03341 31.3168)">
<stop stop-color="#3A3A3A"/>
<stop offset="1" stop-color="white"/>
</radialGradient>
<radialGradient id="paint7_radial_1_1542" cx="0" cy="0" r="1" gradientUnits="userSpaceOnUse" gradientTransform="translate(27.9879 13.3093) rotate(101.541) scale(16.3913 18.5545)">
<stop stop-color="white"/>
<stop offset="1" stop-color="#292929" stop-opacity="0.75"/>
</radialGradient>
<linearGradient id="paint8_linear_1_1542" x1="38.4836" y1="10.679" x2="21.3441" y2="29.8506" gradientUnits="userSpaceOnUse">
<stop stop-color="#696969"/>
<stop offset="0.269894" stop-color="#868685"/>
<stop offset="0.773602" stop-color="#BBB9B9"/>
</linearGradient>
<linearGradient id="paint9_linear_1_1542" x1="34.1639" y1="18.5297" x2="24.2878" y2="32.4566" gradientUnits="userSpaceOnUse">
<stop stop-color="#8A8888"/>
<stop offset="0.270601" stop-color="#666565"/>
<stop offset="1" stop-color="#424141"/>
</linearGradient>
<radialGradient id="paint10_radial_1_1542" cx="0" cy="0" r="1" gradientUnits="userSpaceOnUse" gradientTransform="translate(34.5472 19.5295) rotate(95.3041) scale(12.8976 9.62342)">
<stop stop-color="#898887"/>
<stop offset="1" stop-color="#646060" stop-opacity="0"/>
</radialGradient>
<linearGradient id="paint11_linear_1_1542" x1="24.2877" y1="27.0754" x2="30.3656" y2="18.6142" gradientUnits="userSpaceOnUse">
<stop stop-color="#3B3B3B"/>
<stop offset="1" stop-color="#484848" stop-opacity="0"/>
</linearGradient>
<linearGradient id="paint12_linear_1_1542" x1="24.3711" y1="26.5721" x2="30.2804" y2="18.6141" gradientUnits="userSpaceOnUse">
<stop stop-color="#DEDEDE"/>
<stop offset="1" stop-color="#999999"/>
</linearGradient>
</defs>
</svg>
