<svg width="153" height="171" viewBox="0 0 153 171" fill="none" xmlns="http://www.w3.org/2000/svg">
<g opacity="0.2" filter="url(#filter0_f_1_1713)">
<ellipse cx="76.6627" cy="153.434" rx="14.0592" ry="3.24442" fill="#191919"/>
</g>
<path d="M27.9956 105.259C-9.60837 74.5769 4.60184 44.8987 1.30946 4.04635C1.15676 2.15163 2.7761 0.574209 4.6419 0.937924C27.0636 5.30874 64.9216 22.8504 73.0443 65.8247C76.7124 85.2313 74.85 111.833 74.8149 144.806C74.8139 145.758 73.593 146.155 73.0228 145.392C66.1849 136.252 63.797 134.471 27.9956 105.259Z" fill="url(#paint0_linear_1_1713)"/>
<path d="M25.7056 102.026C-6.53053 75.586 4.2276 38.5246 2.93025 5.4444C2.85751 3.58977 4.45883 2.09215 6.27742 2.46365C27.2958 6.75727 64.2778 24.8902 71.7937 64.6538C75.1775 82.5566 74.9347 113.472 74.9849 144.269C74.9865 145.243 73.7052 145.641 73.1299 144.855C65.7927 134.829 56.4696 127.259 25.7056 102.026Z" fill="url(#paint1_linear_1_1713)"/>
<g opacity="0.6">
<path d="M74.9996 144.898L74.9098 109.69C74.8977 104.977 73.8814 100.264 71.5769 96.1511C44.6848 48.1587 2.94214 58.5144 2.94214 58.5144C2.94214 58.5144 3.54525 84.9038 25.2306 101.923C37.6299 111.654 41.3097 115.782 53.7063 125.516C63.5857 133.274 70.0042 141.31 73.013 145.511C73.5962 146.325 75.0022 145.899 74.9996 144.898Z" fill="url(#paint2_linear_1_1713)"/>
<path d="M74.9996 144.898L74.9098 109.69C74.8977 104.977 73.8814 100.264 71.5769 96.1511C44.6848 48.1587 2.94214 58.5144 2.94214 58.5144C2.94214 58.5144 3.54525 84.9038 25.2306 101.923C37.6299 111.654 41.3097 115.782 53.7063 125.516C63.5857 133.274 70.0042 141.31 73.013 145.511C73.5962 146.325 75.0022 145.899 74.9996 144.898Z" fill="url(#paint3_radial_1_1713)"/>
</g>
<path d="M73.6983 101.128C61.9926 75.8711 36.4731 53.9742 7.36976 58.0261C6.88281 58.0875 6.36917 57.9566 5.89235 58.0307C6.3693 57.9572 6.8838 58.0903 7.37088 58.0299C35.9487 54.7525 61.6154 76.5584 72.0914 101.885C72.7214 103.275 74.371 106.765 74.371 106.765L73.9151 103.827C73.9151 103.827 74.3942 102.511 73.6983 101.128Z" fill="url(#paint4_linear_1_1713)"/>
<path d="M74.1833 100.793C62.4776 75.5357 36.9642 53.9715 7.86092 58.0233C7.37396 58.0848 6.86033 57.9539 6.38351 58.0279C6.86046 57.9545 7.37495 58.0876 7.86203 58.0271C37.0588 54.0421 62.1005 76.223 72.5765 101.55C73.2065 102.94 74.856 106.429 74.856 106.429L74.4001 103.492C74.4001 103.492 74.8793 102.176 74.1833 100.793Z" fill="#3F3F3F"/>
<path d="M1.5 4.04808C1.34836 2.15334 2.96728 0.576108 4.83301 0.939682C27.2547 5.3105 65.1126 22.852 73.2354 65.8264C76.8964 85.1961 75.5856 112.841 75.5771 145.795C75.5769 146.765 74.3198 147.148 73.7695 146.349C73.4101 145.827 73.0622 145.327 72.7217 144.843C71.2212 142.795 69.0385 140.019 66.167 136.887C60.6564 131.292 51.2579 123.671 28.376 105.443C-9.79014 75.0386 4.77155 44.9263 1.5 4.04808Z" fill="url(#paint5_radial_1_1713)"/>
<path d="M124.2 104.638C160.947 76.3346 149.797 46.7504 151.219 3.1616C151.267 1.70577 150.261 0.411296 148.804 0.429779C132.453 0.637281 85.5505 22.6828 80.3449 66.1459C77.8837 86.695 77.0158 112.144 77.8104 145.155C77.832 146.052 78.9392 146.45 79.5172 145.764C87.7482 135.994 88.9541 131.786 124.2 104.638Z" fill="url(#paint6_radial_1_1713)"/>
<path d="M124.2 104.638C160.947 76.3346 149.797 46.7504 151.219 3.1616C151.267 1.70577 150.261 0.411296 148.804 0.429779C132.453 0.637281 85.5505 22.6828 80.3449 66.1459C77.8837 86.695 77.0158 112.144 77.8104 145.155C77.832 146.052 78.9392 146.45 79.5172 145.764C87.7482 135.994 88.9541 131.786 124.2 104.638Z" fill="url(#paint7_radial_1_1713)"/>
<path d="M127.386 100.919C159.622 74.4791 148.864 37.4177 150.162 4.3375C150.234 2.48287 148.633 0.985246 146.814 1.35675C125.796 5.65037 88.814 23.7833 81.2981 63.5469C77.9142 81.4497 78.1571 112.366 78.1069 143.162C78.1053 144.136 79.3866 144.535 79.9619 143.748C87.2991 133.722 96.6222 126.152 127.386 100.919Z" fill="url(#paint8_linear_1_1713)"/>
<path d="M78.0972 144.127L78.1879 108.583C78.1999 103.87 79.2163 99.1571 81.5207 95.0445C108.413 47.0522 150.156 57.4079 150.156 57.4079C150.156 57.4079 149.333 84.401 127.648 101.42C115.249 111.151 112.534 113.245 100.048 123.718C90.1115 132.053 83.1484 140.576 79.9935 144.747C79.4055 145.524 78.0947 145.101 78.0972 144.127Z" fill="url(#paint9_linear_1_1713)"/>
<path d="M78.0972 144.127L78.1879 108.583C78.1999 103.87 79.2163 99.1571 81.5207 95.0445C108.413 47.0522 150.156 57.4079 150.156 57.4079C150.156 57.4079 149.333 84.401 127.648 101.42C115.249 111.151 112.534 113.245 100.048 123.718C90.1115 132.053 83.1484 140.576 79.9935 144.747C79.4055 145.524 78.0947 145.101 78.0972 144.127Z" fill="url(#paint10_radial_1_1713)"/>
<path d="M79.4014 100.022C91.107 74.7642 116.627 52.8673 145.73 56.9192C146.217 56.9806 146.73 56.8497 147.207 56.9238C146.73 56.8503 146.216 56.9835 145.729 56.923C117.151 53.6456 91.4842 75.4515 81.0082 100.778C80.3782 102.168 78.7287 105.658 78.7287 105.658L79.1845 102.72C79.1845 102.72 78.7054 101.405 79.4014 100.022Z" fill="url(#paint11_linear_1_1713)"/>
<path d="M79.3554 99.391C91.0611 74.1337 116.13 52.8631 145.234 56.9149C145.721 56.9763 146.234 56.8455 146.711 56.9195C146.234 56.8461 145.72 56.9792 145.233 56.9187C116.036 52.9336 90.9942 75.1146 80.5182 100.441C79.8882 101.831 78.2387 105.321 78.2387 105.321L78.2381 102.687C78.2381 102.687 78.6594 100.774 79.3554 99.391Z" fill="url(#paint12_linear_1_1713)"/>
<g style="mix-blend-mode:multiply">
<mask id="mask0_1_1713" style="mask-type:alpha" maskUnits="userSpaceOnUse" x="1" y="0" width="151" height="147">
<path d="M27.9956 105.259C-9.60837 74.5766 4.60184 44.8984 1.30946 4.04604C1.15676 2.15133 2.7761 0.573903 4.6419 0.937618C27.0636 5.30844 64.9216 22.8501 73.0443 65.8244C76.7124 85.231 74.85 111.833 74.8149 144.806C74.8139 145.757 73.593 146.154 73.0228 145.392C66.1849 136.252 63.797 134.47 27.9956 105.259Z" fill="url(#paint13_linear_1_1713)"/>
<path d="M25.7056 102.026C-6.53053 75.5857 4.2276 38.5243 2.93025 5.4441C2.85751 3.58947 4.45883 2.09184 6.27742 2.46334C27.2958 6.75697 64.2778 24.8899 71.7937 64.6535C75.1775 82.5563 74.9347 113.472 74.9849 144.268C74.9865 145.242 73.7052 145.641 73.1299 144.855C65.7927 134.828 56.4696 127.259 25.7056 102.026Z" fill="url(#paint14_linear_1_1713)"/>
<g opacity="0.6">
<path d="M74.9996 144.898L74.9098 109.69C74.8977 104.977 73.8814 100.264 71.5769 96.1511C44.6848 48.1587 2.94214 58.5144 2.94214 58.5144C2.94214 58.5144 3.54525 84.9039 25.2306 101.923C37.6299 111.654 41.3097 115.782 53.7063 125.516C63.5857 133.274 70.0042 141.31 73.013 145.511C73.5962 146.325 75.0022 145.899 74.9996 144.898Z" fill="url(#paint15_linear_1_1713)"/>
<path d="M74.9996 144.898L74.9098 109.69C74.8977 104.977 73.8814 100.264 71.5769 96.1511C44.6848 48.1587 2.94214 58.5144 2.94214 58.5144C2.94214 58.5144 3.54525 84.9039 25.2306 101.923C37.6299 111.654 41.3097 115.782 53.7063 125.516C63.5857 133.274 70.0042 141.31 73.013 145.511C73.5962 146.325 75.0022 145.899 74.9996 144.898Z" fill="url(#paint16_radial_1_1713)"/>
</g>
<path d="M73.6983 101.128C61.9926 75.8708 36.4731 53.9739 7.36976 58.0258C6.88281 58.0872 6.36917 57.9563 5.89235 58.0304C6.3693 57.9569 6.8838 58.09 7.37088 58.0296C35.9487 54.7522 61.6154 76.5581 72.0914 101.885C72.7214 103.275 74.371 106.764 74.371 106.764L73.9151 103.827C73.9151 103.827 74.3942 102.511 73.6983 101.128Z" fill="url(#paint17_linear_1_1713)"/>
<path d="M74.1833 100.793C62.4776 75.5358 36.9642 53.9715 7.86092 58.0234C7.37396 58.0848 6.86033 57.9539 6.38351 58.028C6.86046 57.9545 7.37495 58.0877 7.86203 58.0272C37.0588 54.0421 62.1005 76.2231 72.5765 101.55C73.2065 102.94 74.856 106.429 74.856 106.429L74.4001 103.492C74.4001 103.492 74.8793 102.176 74.1833 100.793Z" fill="#3F3F3F"/>
<path d="M1.5 4.04814C1.34836 2.15341 2.96728 0.576168 4.83301 0.939743C27.2547 5.31056 65.1126 22.8521 73.2354 65.8265C76.8964 85.1961 75.5856 112.841 75.5771 145.795C75.5769 146.765 74.3198 147.148 73.7695 146.349C73.4101 145.827 73.0622 145.327 72.7217 144.843C71.2212 142.795 69.0385 140.019 66.167 136.887C60.6564 131.292 51.2579 123.671 28.376 105.443C-9.79014 75.0386 4.77155 44.9264 1.5 4.04814Z" fill="url(#paint18_radial_1_1713)"/>
<path d="M124.2 104.638C160.947 76.3343 149.797 46.7501 151.219 3.16129C151.267 1.70546 150.261 0.41099 148.804 0.429474C132.453 0.636975 85.5505 22.6825 80.3449 66.1456C77.8837 86.6947 77.0158 112.143 77.8104 145.155C77.832 146.051 78.9392 146.449 79.5172 145.763C87.7482 135.994 88.9541 131.786 124.2 104.638Z" fill="url(#paint19_radial_1_1713)"/>
<path d="M124.2 104.638C160.947 76.3343 149.797 46.7501 151.219 3.16129C151.267 1.70546 150.261 0.41099 148.804 0.429474C132.453 0.636975 85.5505 22.6825 80.3449 66.1456C77.8837 86.6947 77.0158 112.143 77.8104 145.155C77.832 146.051 78.9392 146.449 79.5172 145.763C87.7482 135.994 88.9541 131.786 124.2 104.638Z" fill="url(#paint20_radial_1_1713)"/>
<path d="M127.386 100.919C159.622 74.4788 148.864 37.4174 150.162 4.3372C150.234 2.48257 148.633 0.98494 146.814 1.35644C125.796 5.65007 88.814 23.783 81.2981 63.5466C77.9142 81.4494 78.1571 112.365 78.1069 143.161C78.1053 144.135 79.3866 144.534 79.9619 143.748C87.2991 133.722 96.6222 126.152 127.386 100.919Z" fill="url(#paint21_linear_1_1713)"/>
<path d="M78.0972 144.126L78.1879 108.583C78.1999 103.87 79.2163 99.1568 81.5207 95.0442C108.413 47.0518 150.156 57.4075 150.156 57.4075C150.156 57.4075 149.333 84.4007 127.648 101.42C115.249 111.151 112.534 113.245 100.048 123.718C90.1115 132.052 83.1484 140.576 79.9935 144.746C79.4055 145.524 78.0947 145.101 78.0972 144.126Z" fill="url(#paint22_linear_1_1713)"/>
<path d="M78.0972 144.126L78.1879 108.583C78.1999 103.87 79.2163 99.1568 81.5207 95.0442C108.413 47.0518 150.156 57.4075 150.156 57.4075C150.156 57.4075 149.333 84.4007 127.648 101.42C115.249 111.151 112.534 113.245 100.048 123.718C90.1115 132.052 83.1484 140.576 79.9935 144.746C79.4055 145.524 78.0947 145.101 78.0972 144.126Z" fill="url(#paint23_radial_1_1713)"/>
<path d="M79.4014 100.022C91.107 74.7642 116.627 52.8673 145.73 56.9192C146.217 56.9806 146.73 56.8497 147.207 56.9238C146.73 56.8503 146.216 56.9835 145.729 56.923C117.151 53.6456 91.4842 75.4515 81.0082 100.778C80.3782 102.168 78.7287 105.658 78.7287 105.658L79.1845 102.72C79.1845 102.72 78.7054 101.405 79.4014 100.022Z" fill="url(#paint24_linear_1_1713)"/>
<path d="M79.3554 99.3907C91.0611 74.1334 116.13 52.8628 145.234 56.9146C145.721 56.976 146.234 56.8451 146.711 56.9192C146.234 56.8458 145.72 56.9789 145.233 56.9184C116.036 52.9333 90.9942 75.1143 80.5182 100.441C79.8882 101.831 78.2387 105.321 78.2387 105.321L78.2381 102.687C78.2381 102.687 78.6594 100.774 79.3554 99.3907Z" fill="url(#paint25_linear_1_1713)"/>
</mask>
<g mask="url(#mask0_1_1713)">
<rect x="-6.71094" y="-3.0079" width="182.409" height="168.839" fill="url(#paint26_linear_1_1713)"/>
</g>
</g>
<defs>
<filter id="filter0_f_1_1713" x="48.7607" y="136.347" width="55.8049" height="34.1746" filterUnits="userSpaceOnUse" color-interpolation-filters="sRGB">
<feFlood flood-opacity="0" result="BackgroundImageFix"/>
<feBlend mode="normal" in="SourceGraphic" in2="BackgroundImageFix" result="shape"/>
<feGaussianBlur stdDeviation="6.92143" result="effect1_foregroundBlur_1_1713"/>
</filter>
<linearGradient id="paint0_linear_1_1713" x1="4.01542" y1="-3.12293" x2="77.5013" y2="152.348" gradientUnits="userSpaceOnUse">
<stop stop-color="#F0F0F0"/>
<stop offset="1" stop-color="#686868"/>
</linearGradient>
<linearGradient id="paint1_linear_1_1713" x1="-8.48226" y1="10.3837" x2="73.0233" y2="132.948" gradientUnits="userSpaceOnUse">
<stop stop-color="#F2F2F2"/>
<stop offset="0.226398" stop-color="#D4D4D4"/>
<stop offset="0.730106" stop-color="#404040"/>
<stop offset="1" stop-color="#343434"/>
</linearGradient>
<linearGradient id="paint2_linear_1_1713" x1="16.8439" y1="56.0478" x2="79.6267" y2="137.03" gradientUnits="userSpaceOnUse">
<stop stop-color="#D0CFCF"/>
<stop offset="0.270601" stop-color="#D6D6D6"/>
<stop offset="1" stop-color="#888888"/>
</linearGradient>
<radialGradient id="paint3_radial_1_1713" cx="0" cy="0" r="1" gradientTransform="matrix(6.89995 75.3139 56.6314 -5.10859 14.6858 61.244)" gradientUnits="userSpaceOnUse">
<stop stop-color="#DBDBDB"/>
<stop offset="1" stop-color="#CBCBCA" stop-opacity="0"/>
</radialGradient>
<linearGradient id="paint4_linear_1_1713" x1="36.941" y1="61.45" x2="41.0821" y2="108.064" gradientUnits="userSpaceOnUse">
<stop stop-color="#C8C8C8"/>
<stop offset="1" stop-color="#828282"/>
</linearGradient>
<radialGradient id="paint5_radial_1_1713" cx="0" cy="0" r="1" gradientTransform="matrix(32.0355 73.8481 -63.0856 26.947 6.7964 49.0212)" gradientUnits="userSpaceOnUse">
<stop stop-color="white"/>
<stop offset="1" stop-color="#A5A5A5" stop-opacity="0"/>
</radialGradient>
<radialGradient id="paint6_radial_1_1713" cx="0" cy="0" r="1" gradientTransform="matrix(-36.4711 -19.073 -85.5842 161.138 151.314 37.2908)" gradientUnits="userSpaceOnUse">
<stop stop-color="#3A3A3A"/>
<stop offset="1" stop-color="white"/>
</radialGradient>
<radialGradient id="paint7_radial_1_1713" cx="0" cy="0" r="1" gradientTransform="matrix(-19.2213 93.4087 106.558 21.5902 100.057 24.5754)" gradientUnits="userSpaceOnUse">
<stop stop-color="white"/>
<stop offset="1" stop-color="#292929" stop-opacity="0.75"/>
</radialGradient>
<linearGradient id="paint8_linear_1_1713" x1="161.574" y1="9.27682" x2="61.975" y2="121.551" gradientUnits="userSpaceOnUse">
<stop stop-color="#696969"/>
<stop offset="0.269894" stop-color="#868685"/>
<stop offset="0.773602" stop-color="#BBB9B9"/>
</linearGradient>
<linearGradient id="paint9_linear_1_1713" x1="136.254" y1="54.9413" x2="78.9597" y2="136.363" gradientUnits="userSpaceOnUse">
<stop stop-color="#8A8888"/>
<stop offset="0.270601" stop-color="#666565"/>
<stop offset="1" stop-color="#424141"/>
</linearGradient>
<radialGradient id="paint10_radial_1_1713" cx="0" cy="0" r="1" gradientTransform="matrix(-6.98852 74.6949 -56.166 -5.17417 138.5 60.7564)" gradientUnits="userSpaceOnUse">
<stop stop-color="#898887"/>
<stop offset="1" stop-color="#646060" stop-opacity="0"/>
</radialGradient>
<linearGradient id="paint11_linear_1_1713" x1="78.3649" y1="104.644" x2="113.627" y2="55.1729" gradientUnits="userSpaceOnUse">
<stop stop-color="#3B3B3B"/>
<stop offset="1" stop-color="#484848" stop-opacity="0"/>
</linearGradient>
<linearGradient id="paint12_linear_1_1713" x1="78.8529" y1="101.714" x2="113.145" y2="55.174" gradientUnits="userSpaceOnUse">
<stop stop-color="#DEDEDE"/>
<stop offset="1" stop-color="#999999"/>
</linearGradient>
<linearGradient id="paint13_linear_1_1713" x1="4.01542" y1="-3.12324" x2="77.5013" y2="152.348" gradientUnits="userSpaceOnUse">
<stop stop-color="#F0F0F0"/>
<stop offset="1" stop-color="#686868"/>
</linearGradient>
<linearGradient id="paint14_linear_1_1713" x1="-8.48226" y1="10.3834" x2="73.0233" y2="132.947" gradientUnits="userSpaceOnUse">
<stop stop-color="#F2F2F2"/>
<stop offset="0.226398" stop-color="#D4D4D4"/>
<stop offset="0.730106" stop-color="#404040"/>
<stop offset="1" stop-color="#343434"/>
</linearGradient>
<linearGradient id="paint15_linear_1_1713" x1="16.8439" y1="56.0479" x2="79.6267" y2="137.03" gradientUnits="userSpaceOnUse">
<stop stop-color="#D0CFCF"/>
<stop offset="0.270601" stop-color="#D6D6D6"/>
<stop offset="1" stop-color="#888888"/>
</linearGradient>
<radialGradient id="paint16_radial_1_1713" cx="0" cy="0" r="1" gradientTransform="matrix(6.89995 75.3139 56.6314 -5.10859 14.6858 61.244)" gradientUnits="userSpaceOnUse">
<stop stop-color="#DBDBDB"/>
<stop offset="1" stop-color="#CBCBCA" stop-opacity="0"/>
</radialGradient>
<linearGradient id="paint17_linear_1_1713" x1="36.941" y1="61.4496" x2="41.0821" y2="108.064" gradientUnits="userSpaceOnUse">
<stop stop-color="#C8C8C8"/>
<stop offset="1" stop-color="#828282"/>
</linearGradient>
<radialGradient id="paint18_radial_1_1713" cx="0" cy="0" r="1" gradientTransform="matrix(32.0355 73.8481 -63.0856 26.947 6.7964 49.0213)" gradientUnits="userSpaceOnUse">
<stop stop-color="white"/>
<stop offset="1" stop-color="#A5A5A5" stop-opacity="0"/>
</radialGradient>
<radialGradient id="paint19_radial_1_1713" cx="0" cy="0" r="1" gradientTransform="matrix(-36.4711 -19.073 -85.5842 161.138 151.314 37.2905)" gradientUnits="userSpaceOnUse">
<stop stop-color="#3A3A3A"/>
<stop offset="1" stop-color="white"/>
</radialGradient>
<radialGradient id="paint20_radial_1_1713" cx="0" cy="0" r="1" gradientTransform="matrix(-19.2213 93.4087 106.558 21.5902 100.057 24.5751)" gradientUnits="userSpaceOnUse">
<stop stop-color="white"/>
<stop offset="1" stop-color="#292929" stop-opacity="0.75"/>
</radialGradient>
<linearGradient id="paint21_linear_1_1713" x1="161.574" y1="9.27651" x2="61.975" y2="121.55" gradientUnits="userSpaceOnUse">
<stop stop-color="#696969"/>
<stop offset="0.269894" stop-color="#868685"/>
<stop offset="0.773602" stop-color="#BBB9B9"/>
</linearGradient>
<linearGradient id="paint22_linear_1_1713" x1="136.254" y1="54.941" x2="78.9597" y2="136.363" gradientUnits="userSpaceOnUse">
<stop stop-color="#8A8888"/>
<stop offset="0.270601" stop-color="#666565"/>
<stop offset="1" stop-color="#424141"/>
</linearGradient>
<radialGradient id="paint23_radial_1_1713" cx="0" cy="0" r="1" gradientTransform="matrix(-6.98852 74.6949 -56.166 -5.17417 138.5 60.7561)" gradientUnits="userSpaceOnUse">
<stop stop-color="#898887"/>
<stop offset="1" stop-color="#646060" stop-opacity="0"/>
</radialGradient>
<linearGradient id="paint24_linear_1_1713" x1="78.3649" y1="104.644" x2="113.627" y2="55.1729" gradientUnits="userSpaceOnUse">
<stop stop-color="#3B3B3B"/>
<stop offset="1" stop-color="#484848" stop-opacity="0"/>
</linearGradient>
<linearGradient id="paint25_linear_1_1713" x1="78.8529" y1="101.714" x2="113.145" y2="55.1737" gradientUnits="userSpaceOnUse">
<stop stop-color="#DEDEDE"/>
<stop offset="1" stop-color="#999999"/>
</linearGradient>
<linearGradient id="paint26_linear_1_1713" x1="76.202" y1="137.242" x2="76.202" y2="150.12" gradientUnits="userSpaceOnUse">
<stop stop-color="#C2F6B8" stop-opacity="0"/>
<stop offset="1" stop-color="#8A9E72"/>
</linearGradient>
</defs>
</svg>
